<svg width="108" height="106" viewBox="0 0 108 106" fill="none" xmlns="http://www.w3.org/2000/svg">
<g clip-path="url(#clip0)" filter="url(#filter0_d)">
<path d="M92.2804 38.2807H44.0437L60.0524 22.1565C63.4567 18.7313 64.4192 13.8336 62.5644 9.37483C60.7097 4.91604 56.5575 2.14612 51.728 2.14612C48.5876 2.14612 45.6366 3.37034 43.4173 5.59534L7.42725 41.7131C2.85791 46.2824 2.85791 53.7174 7.42236 58.2819L43.4187 94.4061C45.6366 96.6293 48.5874 97.8537 51.7278 97.8537C56.5569 97.8537 60.7093 95.0838 62.5644 90.6252C64.419 86.1664 63.4564 81.2688 60.0536 77.8453L44.0435 61.7194H72.748C74.9056 61.7194 76.6544 59.9705 76.6544 57.8129C76.6544 55.6553 74.9056 53.9065 72.748 53.9065H34.6601C33.0827 53.9065 31.6599 54.8551 31.0536 56.3115C30.4474 57.7676 30.7765 59.4459 31.8878 60.5651L54.5108 83.3514C56.2228 85.0739 55.5864 87.0576 55.3505 87.6244C55.1146 88.1912 54.1565 90.0412 51.7276 90.0412C50.6778 90.0412 49.6911 89.6319 48.9513 88.8901L12.9519 52.7621C11.4288 51.2391 11.4288 48.7608 12.9567 47.2328L48.9497 11.1115C49.6913 10.3684 50.6778 9.95901 51.7278 9.95901C54.1567 9.95901 55.1147 11.8088 55.3507 12.3758C55.5866 12.9428 56.2229 14.9264 54.5095 16.6504L31.8882 39.435C30.7769 40.5543 30.4478 42.2324 31.054 43.6887C31.6603 45.1449 33.0829 46.0938 34.6605 46.0938H92.2804C94.4345 46.0938 96.1868 47.8461 96.1868 50.0002C96.1868 52.1543 94.4345 53.9067 92.2804 53.9067C90.1228 53.9067 88.3739 55.6555 88.3739 57.8131C88.3739 59.9707 90.1228 61.7196 92.2804 61.7196C98.7423 61.7194 104 56.4621 104 50C104 43.5381 98.7423 38.2807 92.2804 38.2807Z" fill="url(#paint0_linear)"/>
</g>
<defs>
<filter id="filter0_d" x="0" y="0" width="108" height="108" filterUnits="userSpaceOnUse" color-interpolation-filters="sRGB">
<feFlood flood-opacity="0" result="BackgroundImageFix"/>
<feColorMatrix in="SourceAlpha" type="matrix" values="0 0 0 0 0 0 0 0 0 0 0 0 0 0 0 0 0 0 127 0"/>
<feOffset dy="4"/>
<feGaussianBlur stdDeviation="2"/>
<feColorMatrix type="matrix" values="0 0 0 0 0 0 0 0 0 0 0 0 0 0 0 0 0 0 0.25 0"/>
<feBlend mode="normal" in2="BackgroundImageFix" result="effect1_dropShadow"/>
<feBlend mode="normal" in="SourceGraphic" in2="effect1_dropShadow" result="shape"/>
</filter>
<linearGradient id="paint0_linear" x1="53.9997" y1="2.14612" x2="53.9997" y2="97.8537" gradientUnits="userSpaceOnUse">
<stop stop-color="#EE83EF"/>
<stop offset="1" stop-color="#41DFD0"/>
</linearGradient>
<clipPath id="clip0">
<rect width="100" height="100" fill="white" transform="translate(4)"/>
</clipPath>
</defs>
</svg>
