<svg width="30" height="30" viewBox="0 0 100 100" fill="none" xmlns="http://www.w3.org/2000/svg">
<path d="M43.5336 75.7812H53.5904C54.4533 75.7812 55.1529 75.0816 55.1529 74.2188V51.5807H60.3777C61.1787 51.5807 61.85 50.975 61.932 50.1783L62.8129 41.6291C62.8582 41.1893 62.7151 40.7506 62.4186 40.4223C62.1223 40.0938 61.7008 39.9064 61.2586 39.9064H55.1529V36.4436C55.1529 35.7283 55.3793 35.6748 55.7248 35.6748H61.1315C61.9944 35.6748 62.694 34.9752 62.694 34.1123V25.8115C62.694 24.951 61.9983 24.2525 61.1377 24.249L53.6813 24.2188C48.4563 24.2188 45.6678 26.5176 44.2487 28.4459C42.267 31.1387 41.9711 34.2937 41.9711 35.9348V39.9063H38.7506C37.8877 39.9063 37.1881 40.6059 37.1881 41.4688V50.018C37.1881 50.8809 37.8877 51.5805 38.7506 51.5805H41.9711V74.2188C41.9711 75.0816 42.6705 75.7812 43.5336 75.7812ZM40.3129 48.4557V43.0314H43.5334C44.3963 43.0314 45.0959 42.3318 45.0959 41.4689V35.935C45.0959 34.9223 45.2586 32.3459 46.7653 30.2982C48.2078 28.3379 50.5348 27.3439 53.6746 27.3439L59.5686 27.3678V32.55H55.7244C53.8844 32.55 52.0276 33.7539 52.0276 36.4437V41.4691C52.0276 42.332 52.7272 43.0316 53.5901 43.0316H59.5266L58.9676 48.4559H53.5901C52.7272 48.4559 52.0276 49.1555 52.0276 50.0184V72.6562H45.0957V50.0182C45.0957 49.1553 44.3961 48.4557 43.5332 48.4557H40.3129V48.4557Z" fill="url(#paint0_linear)"/>
<path d="M85.3559 14.6453C75.9121 5.20117 63.3557 0 50 0C36.6453 0 24.0895 5.20117 14.6453 14.6453C5.20117 24.0895 0 36.6453 0 50C0 63.357 5.20117 75.9137 14.6453 85.357C24.0889 94.7998 36.6447 100 50 100C63.3564 100 75.9127 94.7998 85.3557 85.357C94.7992 75.9139 100 63.3572 100 50C100 36.6449 94.7992 24.0891 85.3559 14.6453ZM83.1461 83.1473C74.2932 91.9998 62.5217 96.875 50 96.875C37.4793 96.875 25.7082 91.9998 16.8549 83.1473C8.00098 74.2941 3.125 62.5221 3.125 50C3.125 37.4801 8.00098 25.709 16.8549 16.8551C25.709 8.00098 37.4801 3.125 50 3.125C62.5211 3.125 74.2926 8.00098 83.1461 16.8549C91.9994 25.7086 96.875 37.4797 96.875 50C96.875 62.5225 91.9994 74.2943 83.1461 83.1473Z" fill="url(#paint1_linear)"/>
<path d="M83.9918 22.4548C83.4481 21.7845 82.4643 21.682 81.794 22.2259C81.1238 22.7697 81.0213 23.7537 81.5651 24.4236C87.4074 31.6248 90.625 40.708 90.625 50C90.625 60.8529 86.3994 71.0552 78.7268 78.7277C71.0541 86.3998 60.8522 90.625 50 90.625C39.9883 90.625 30.3701 86.9517 22.9174 80.282C22.2744 79.7066 21.2865 79.7613 20.7111 80.4043C20.1358 81.0472 20.1904 82.0351 20.8334 82.6105C28.86 89.7939 39.2182 93.75 50 93.75C61.6869 93.75 72.6737 89.1998 80.9363 80.9373C89.1994 72.6746 93.75 61.6875 93.75 50C93.75 39.9933 90.2844 30.2111 83.9918 22.4548Z" fill="url(#paint2_linear)"/>
<path d="M9.375 50C9.375 27.5994 27.5994 9.375 50 9.375C60.0117 9.375 69.6297 13.0484 77.0824 19.7186C77.7256 20.2943 78.7135 20.2393 79.2887 19.5965C79.8643 18.9535 79.8096 17.9656 79.1666 17.3902C71.14 10.2062 60.7818 6.25 50 6.25C38.3146 6.25 27.3283 10.801 19.0646 19.0646C10.801 27.3281 6.25 38.3146 6.25 50C6.25 60.0078 9.71562 69.7906 16.0084 77.5465C16.3172 77.9271 16.768 78.1246 17.2227 78.1246C17.5686 78.1246 17.9166 78.0103 18.2062 77.7754C18.8764 77.2316 18.9789 76.2477 18.4352 75.5775C12.5926 68.3766 9.375 59.293 9.375 50Z" fill="url(#paint3_linear)"/>
<defs>
<linearGradient id="paint0_linear" x1="50.0046" y1="24.2187" x2="50.0046" y2="75.7812" gradientUnits="userSpaceOnUse">
<stop stop-color="#EE83EF"/>
<stop offset="1" stop-color="#41DFD0"/>
</linearGradient>
<linearGradient id="paint1_linear" x1="50" y1="0" x2="50" y2="100" gradientUnits="userSpaceOnUse">
<stop stop-color="#EE83EF"/>
<stop offset="1" stop-color="#41DFD0"/>
</linearGradient>
<linearGradient id="paint2_linear" x1="57.0315" y1="21.8766" x2="57.0315" y2="93.75" gradientUnits="userSpaceOnUse">
<stop stop-color="#EE83EF"/>
<stop offset="1" stop-color="#41DFD0"/>
</linearGradient>
<linearGradient id="paint3_linear" x1="42.9685" y1="6.25" x2="42.9685" y2="78.1246" gradientUnits="userSpaceOnUse">
<stop stop-color="#EE83EF"/>
<stop offset="1" stop-color="#41DFD0"/>
</linearGradient>
</defs>
</svg>
