<svg width="100" height="100" viewBox="0 0 100 100" fill="none" xmlns="http://www.w3.org/2000/svg">
<g clip-path="url(#clip0)">
<path d="M91.8904 80.8123C90.9035 80.8123 89.9363 80.9898 89.027 81.3336C87.1801 79.1828 84.4604 77.9029 81.5707 77.9029C81.133 77.9029 80.7016 77.933 80.2762 77.9885L83.7654 55.3846L87.0648 58.6873C88.3924 60.0162 90.1629 60.748 92.0506 60.7482C93.9383 60.7482 95.709 60.0162 97.0365 58.6873C99.7842 55.9371 99.7842 51.4619 97.0365 48.7113L80.4109 32.0697C79.6486 31.3066 78.4121 31.3061 77.6488 32.0684C76.8856 32.8307 76.8852 34.0672 77.6475 34.8305L94.2729 51.4721C95.4998 52.7002 95.4998 54.6986 94.273 55.9268C93.6832 56.5168 92.8939 56.8422 92.0504 56.8422C91.207 56.842 90.418 56.517 89.8281 55.9268L51.3789 17.4393C51.0127 17.0725 50.5156 16.8664 49.9973 16.8664C49.4789 16.8664 48.9818 17.0725 48.6156 17.4393L10.1637 55.9283C9.57773 56.5168 8.7918 56.841 7.95059 56.8416C7.9498 56.8416 7.94902 56.8416 7.94805 56.8416C7.10508 56.8416 6.31621 56.5166 5.72637 55.9264C4.49961 54.6982 4.49961 52.6998 5.72637 51.4717L49.9971 7.15801L65.241 22.4166C66.0033 23.1797 67.2398 23.1803 68.0031 22.418C68.7664 21.6557 68.7668 20.4191 68.0045 19.6559L51.3789 3.01426C51.0127 2.64746 50.5156 2.44141 49.9973 2.44141C49.4789 2.44141 48.9818 2.64746 48.6156 3.01426L2.96289 48.7109C0.21543 51.4615 0.21543 55.9367 2.96309 58.6869C4.29082 60.016 6.06094 60.7479 7.94805 60.7477H7.95332C9.83945 60.7463 11.6074 60.0139 12.9291 58.6869L16.2332 55.3797L19.7207 77.9908C19.2918 77.9338 18.8586 77.9027 18.4236 77.9027C15.5391 77.9027 12.8205 79.1826 10.9707 81.3328C10.0633 80.9896 9.09707 80.8123 8.10957 80.8123C3.63789 80.8123 0 84.4527 0 88.9277C0 93.5256 3.78945 97.5586 8.10957 97.5586H91.8906C96.2105 97.5586 100 93.5256 100 88.9277C100 84.4527 96.3621 80.8123 91.8904 80.8123ZM49.9971 21.5832L80.3422 51.9576L73.9057 93.6523H63.034V76.7414C63.034 69.55 57.1857 63.6994 49.9971 63.6994C42.8117 63.6994 36.9658 69.55 36.9658 76.7414V93.6523H26.0889L19.6568 51.9527L49.9971 21.5832ZM40.8723 93.1426V76.7414C40.8723 71.7039 44.9656 67.6057 49.9973 67.6057C55.0318 67.6057 59.1279 71.7039 59.1279 76.7414V93.1426H40.8723ZM3.90625 88.9277C3.90625 86.6068 5.7918 84.7186 8.10957 84.7186C8.95918 84.7186 9.77754 84.9719 10.4762 85.4512C10.9266 85.7598 11.4857 85.8654 12.0178 85.7441C12.5502 85.6219 13.0068 85.2826 13.2773 84.8082C14.3328 82.9582 16.3049 81.8092 18.4238 81.8092C19.0877 81.8092 19.7434 81.9225 20.3604 82.1357L22.1367 93.6525H8.10957C5.90977 93.6523 3.90625 91.4004 3.90625 88.9277ZM91.8904 93.6523H77.8582L79.6363 82.1342C80.2529 81.9199 80.9 81.8092 81.5707 81.8092C83.6939 81.8092 85.6652 82.9572 86.7154 84.8055C86.985 85.2801 87.4408 85.6199 87.9727 85.7434C88.5045 85.8666 89.0633 85.7617 89.5143 85.4543C90.2195 84.973 91.0412 84.7188 91.8906 84.7188C94.2082 84.7188 96.0939 86.607 96.0939 88.9279C96.0938 91.4004 94.0902 93.6523 91.8904 93.6523Z" fill="url(#paint0_linear)"/>
<path d="M72.8298 29.2016C72.5376 29.2016 72.2408 29.1354 71.9613 28.9955L71.9501 28.9901C70.9853 28.5076 70.5943 27.3344 71.0765 26.3697C71.5589 25.4047 72.732 25.0139 73.6968 25.4961C74.6617 25.9783 75.0583 27.1545 74.5759 28.1193C74.2333 28.8045 73.5453 29.2016 72.8298 29.2016V29.2016Z" fill="url(#paint1_linear)"/>
</g>
<defs>
<linearGradient id="paint0_linear" x1="50.0001" y1="2.44141" x2="50.0001" y2="97.5586" gradientUnits="userSpaceOnUse">
<stop stop-color="#EE83EF"/>
<stop offset="1" stop-color="#41DFD0"/>
</linearGradient>
<linearGradient id="paint1_linear" x1="72.8257" y1="25.2896" x2="72.8257" y2="29.2016" gradientUnits="userSpaceOnUse">
<stop stop-color="#EE83EF"/>
<stop offset="1" stop-color="#41DFD0"/>
</linearGradient>
<clipPath id="clip0">
<rect width="100" height="100" fill="white"/>
</clipPath>
</defs>
</svg>
