<svg width="100" height="100" viewBox="0 0 300 300" fill="none" xmlns="http://www.w3.org/2000/svg">
<path d="M99.1474 129.13C106.593 129.13 112.628 120.046 112.628 108.84C112.628 97.6345 106.593 88.5505 99.1474 88.5505C91.7023 88.5505 85.6668 97.6345 85.6668 108.84C85.6668 120.046 91.7023 129.13 99.1474 129.13Z" fill="url(#paint0_linear)"/>
<path d="M128.478 141.284C135.378 144.438 144.032 138.613 147.827 128.262C151.624 117.896 149.144 106.925 142.235 103.752C135.377 100.589 126.704 106.427 122.917 116.77C119.117 127.154 121.619 138.099 128.478 141.284Z" fill="url(#paint1_linear)"/>
<path d="M69.8056 141.283C76.6764 138.098 79.168 127.153 75.367 116.77C71.5889 106.427 62.927 100.6 56.046 103.751C49.1369 106.913 46.6581 117.897 50.4566 128.262C54.2652 138.602 62.927 144.43 69.8056 141.283Z" fill="url(#paint2_linear)"/>
<path d="M300 234.425L279.465 164.627C279.429 164.496 279.291 164.456 279.24 164.342C276.886 144.106 236.646 133.107 198.402 133.107C195.094 133.107 191.782 133.301 188.474 133.462C183.119 106.418 177.611 78.4599 180.592 51.3733C180.612 51.1407 180.434 51.0008 180.434 50.7868C181.79 49.0429 182.72 47.1721 182.72 45.0173V22.4458C182.72 0.256865 102.184 0 98.7666 0C95.3401 0 14.7978 0.256865 14.7978 22.4458V45.0144C14.7978 47.1421 15.7391 49.0115 17.0868 50.7611C17.0868 50.988 16.9161 51.1393 16.9467 51.3533C19.9197 78.5769 14.3698 106.674 8.99564 133.855C3.4699 161.809 -2.252 190.71 0.898104 219.635C3.39602 240.782 25.7397 256.601 44.0455 256.601H47.0491C44.5193 261.079 42.8048 266.151 42.8048 271.589C42.8048 276.335 43.899 281.093 45.9689 285.32C50.4463 294.379 58.9578 300 68.175 300C70.8475 300 73.4881 299.543 75.6178 298.709C83.5574 296.741 92.8969 288.425 103.356 274.008H196.764C197.31 274.008 197.836 274.071 198.373 274.071C198.919 274.071 199.44 274.008 199.986 274.008H221.517C231.997 288.425 241.312 296.741 248.893 298.576C251.419 299.519 254.073 300 256.723 300C265.963 300 274.457 294.379 278.948 285.297C281.01 281.093 282.093 276.37 282.093 271.566C282.093 266.567 280.586 261.93 278.423 257.681C291.644 250.97 300 242.894 300 234.425ZM279.73 246.572C281.175 242.98 282.135 239.177 282.135 235.14C282.135 230.358 281.047 225.63 278.98 221.409C274.523 212.35 266.009 206.729 256.76 206.729C254.125 206.729 251.496 207.187 249.342 207.993C241.421 209.988 232.084 218.282 221.604 232.675H192.202H181.513H106.105L116.116 199.027L122.394 177.913C123.615 179.291 124.918 180.59 126.524 181.847C126.534 181.847 126.534 181.871 126.534 181.871C126.534 181.871 126.544 181.871 126.554 181.871C128.449 183.334 130.368 184.805 132.754 186.098C146.475 193.556 167.544 197.781 188.949 198.788C191.782 198.936 194.625 199.091 197.463 199.114C197.79 199.114 198.113 199.139 198.444 199.139C229.792 199.139 262.339 191.698 274.499 177.916L291.466 235.04C290.99 238.389 286.631 242.478 279.73 246.572ZM273.604 271.558C273.604 274.794 272.925 277.86 271.527 280.685C268.555 286.701 262.894 290.442 256.753 290.442C254.992 290.442 253.267 290.115 251.163 289.36C245.899 288.08 238.799 281.645 230.949 271.524C229.835 270.071 228.753 268.727 227.622 267.138C227.376 266.823 227.151 266.572 226.916 266.239L225.639 264.425H200.025H196.762H153.314H135.084H99.2646L97.9832 266.239C88.5061 279.633 79.9182 287.852 73.3658 289.48C65.7981 292.26 57.2369 288.381 53.4143 280.685C52.0284 277.838 51.3265 274.789 51.3265 271.569C51.3265 265.948 53.5569 260.618 57.4293 256.986L57.8789 256.557L61.3551 253.319L57.4293 249.664C56.6383 248.932 56.2472 247.88 55.5976 247.027C53.0602 243.648 51.3278 239.611 51.3278 235.138C51.3278 231.919 52.0296 228.848 53.4054 226.045C56.3886 220.008 62.0481 216.289 68.1763 216.289C69.9393 216.289 71.6882 216.593 73.7785 217.336C79.9093 218.867 88.5291 227.074 98.0061 240.461L98.8889 241.68L99.2888 242.246H104.797H110.838H169.996H184.979H225.678L226.949 240.461C236.437 227.074 245.055 218.856 251.557 217.203C259.216 214.446 267.699 218.318 271.496 226.022C272.905 228.869 273.589 231.919 273.589 235.138C273.589 240.759 271.369 246.089 267.484 249.71L263.559 253.387L264.116 253.891L267.505 257.042C267.623 257.15 267.679 257.31 267.775 257.426C268.93 258.552 269.67 259.993 270.492 261.372C272.318 264.403 273.604 267.817 273.604 271.558ZM198.402 142.634C243.502 142.634 271.164 156.313 271.164 166.116C271.164 175.916 243.482 189.619 198.402 189.619C197.855 189.619 197.376 189.55 196.85 189.55C193.88 189.527 191.097 189.355 188.294 189.224C176.998 188.674 166.967 187.343 158.489 185.369C167.116 183.093 177.025 181.653 187.652 181.041C190.465 180.864 193.289 180.731 196.188 180.71C196.938 180.687 197.663 180.601 198.423 180.601C200.777 180.601 202.692 178.481 202.692 175.832C202.692 173.206 200.788 171.062 198.423 171.062C197.29 171.062 196.219 171.17 195.085 171.194C192.181 171.239 189.343 171.388 186.519 171.543C169.684 172.594 154.364 175.699 142.994 180.579C140.085 179.4 137.517 178.17 135.314 176.884C139.845 172.811 148.364 168.941 159.807 166.116C167.097 164.325 175.494 162.913 185.086 162.243C187.827 162.048 190.768 162.003 193.676 161.94C195.27 161.894 196.785 161.763 198.434 161.763C200.788 161.763 202.702 159.641 202.702 156.992C202.702 154.368 200.798 152.229 198.434 152.229C196.275 152.229 194.233 152.357 192.125 152.435C189.205 152.517 186.306 152.626 183.502 152.841C162.671 154.411 145.176 159.177 134.508 166.137C133.946 166.509 133.536 166.926 133.025 167.297C131.228 168.589 129.615 169.944 128.298 171.37C126.765 169.573 125.696 167.801 125.696 166.137C125.696 164.038 127.219 161.739 129.647 159.486C137.098 152.483 155.265 145.483 181.696 143.344C184.423 143.119 187.429 143.08 190.328 142.96C192.992 142.838 195.569 142.634 198.402 142.634ZM98.7742 35.3277C75.5223 35.3277 57.1567 33.2 44.3385 30.5642C61.2863 25.3656 75.9236 25.4655 99.4532 27.1151C101.746 27.0124 103.816 25.2571 103.966 22.6399C104.117 20.0099 102.324 17.7452 99.9767 17.5939C70.329 15.4862 53.3761 15.7659 28.8796 26.2089C25.7881 24.9617 23.857 23.7958 23.3386 22.8654V22.7569C25.6174 17.9821 52.5468 9.54687 98.7755 9.54687C145.197 9.54687 172.201 18.0506 174.284 22.0705C172.22 26.8211 145.214 35.3277 98.7742 35.3277ZM23.3386 45.0044V33.2671C24.3182 33.8022 25.3601 34.3159 26.4569 34.7968C27.2097 35.4975 28.0886 35.9527 29.0809 35.9527C29.1293 35.9527 29.1777 35.9185 29.2465 35.9185C52.557 44.6819 96.2661 44.8631 98.7742 44.8631C101.515 44.8631 153.523 44.6591 174.232 33.2442L174.261 44.6391C172.183 49.3968 145.185 57.9034 98.7653 57.9034C52.3456 57.902 25.3703 49.3954 23.3386 45.0044ZM44.0557 247.028C29.8668 247.028 11.2299 234.242 9.35867 218.424C6.39072 191.167 11.9368 163.096 17.3072 135.917C22.396 110.157 27.3447 83.59 25.6658 57.0044C47.728 67.2548 96.1362 67.4517 98.7755 67.4517C101.417 67.4517 149.806 67.2548 171.86 57.0044C170.241 82.9507 174.886 108.873 179.868 134.044C156.579 136.183 134.866 142.268 124.156 152.081C116.716 144.161 106.658 139.133 99.0366 139.153C86.747 139.165 67.9292 152.474 64.5014 169.866C63.8811 172.043 63.5078 174.365 63.5193 176.785C63.5601 185.318 67.7483 192.666 73.9504 196.531C76.8292 198.311 80.1602 199.3 83.6899 199.3C89.9201 199.3 95.4662 196.115 99.1398 191.127C101.347 194.077 104.32 196.092 107.567 197.458L98.8074 226.944C90.2092 216.244 82.439 209.726 76.0204 208.112C64.588 204.012 51.738 209.747 45.9715 221.432C43.9117 225.606 42.8163 230.358 42.8163 235.138C42.8163 239.358 43.9117 243.311 45.4683 247.027H44.0557V247.028Z" fill="url(#paint3_linear)"/>
<defs>
<linearGradient id="paint0_linear" x1="99.1474" y1="88.5505" x2="99.1474" y2="129.13" gradientUnits="userSpaceOnUse">
<stop stop-color="#EE83EF"/>
<stop offset="1" stop-color="#41DFD0"/>
</linearGradient>
<linearGradient id="paint1_linear" x1="135.373" y1="102.892" x2="135.373" y2="142.141" gradientUnits="userSpaceOnUse">
<stop stop-color="#EE83EF"/>
<stop offset="1" stop-color="#41DFD0"/>
</linearGradient>
<linearGradient id="paint2_linear" x1="62.9117" y1="102.896" x2="62.9117" y2="142.137" gradientUnits="userSpaceOnUse">
<stop stop-color="#EE83EF"/>
<stop offset="1" stop-color="#41DFD0"/>
</linearGradient>
<linearGradient id="paint3_linear" x1="150" y1="0" x2="150" y2="300" gradientUnits="userSpaceOnUse">
<stop stop-color="#EE83EF"/>
<stop offset="1" stop-color="#41DFD0"/>
</linearGradient>
</defs>
</svg>
