<?xml version="1.0"?>
<svg xmlns="http://www.w3.org/2000/svg" xmlns:xlink="http://www.w3.org/1999/xlink" viewBox="0 0 512 512" width="100" height="100"><defs><linearGradient id="linear-gradient" x1="105.435" y1="480.915" x2="447.467" y2="138.883" gradientUnits="userSpaceOnUse"><stop offset="0" stop-color="#41dfd0"/><stop offset="1" stop-color="#ee83ef"/></linearGradient></defs><g id="gradient"><path d="M99.069,360.543l.473-.355a57.968,57.968,0,0,0,10.131,13.645L120,384.159v68.687a8,8,0,0,0,8,8h24a8,8,0,0,0,7.919-6.868l7.744-54.2,9.843-14.764a24.051,24.051,0,0,0,1.5-24.046l-9.772-19.542,12.247-18.37,43.453-21.727,25.559,6.391,14.355,28.709a8.005,8.005,0,0,0,9.685,4.012l24-8a8,8,0,0,0,5.059-10.121L289.717,280.7a24.139,24.139,0,0,0-12.269-13.993L252.5,254.569a53.833,53.833,0,0,0-3.216-32.376l-1.522-3.552L242.6,184.215,269,163.093a8,8,0,0,0,1.658-10.685l-16-24a8,8,0,0,0-9.3-3.113l-17.74,6.209-25.677-6.419a8,8,0,0,0-7.6,2.1l-24,24A8,8,0,0,0,168,156.846V192.1a38.013,38.013,0,0,1-5.415,19.551l-4.613,7.688a118.75,118.75,0,0,1-30.725,34.067,84.485,84.485,0,0,0-21.855,24.233,93.791,93.791,0,0,0-11.854,31.6,7.977,7.977,0,0,0-2.338,1.2L68.909,327.164a45.77,45.77,0,0,1-18.379,8.217L22.431,341a8,8,0,0,0-4.084,13.506l.323.322a61.107,61.107,0,0,0,43.494,18.017A61.883,61.883,0,0,0,99.069,360.543ZM184,165.5l4.177,10.079A7.708,7.708,0,0,1,184,185.658ZM119.112,285.875a68.571,68.571,0,0,1,17.735-19.665,134.693,134.693,0,0,0,34.845-38.635l4.613-7.687a54.018,54.018,0,0,0,6.742-17.725,23.545,23.545,0,0,0,16.97-9.393,23.822,23.822,0,0,0,2.941-23.319l-8.277-19.973,7.773-7.773,23.606,5.9a7.991,7.991,0,0,0,4.583-.21l14.143-4.95,8.489,12.735L229,174.6a8,8,0,0,0-2.914,7.433l6,40a7.983,7.983,0,0,0,.559,1.965l1.928,4.5a37.9,37.9,0,0,1,.906,27.615c0,.009-.031.088-.033.1a8,8,0,0,0,4.052,9.832L270.449,281.1a8.041,8.041,0,0,1,4.09,4.664l11.342,34.026-9.829,3.276-12.9-25.794a8,8,0,0,0-5.215-4.183l-32-8a8,8,0,0,0-5.518.605l-48,24a8,8,0,0,0-3.078,2.718l-16,24a8,8,0,0,0-.5,8.016l11.847,23.7a8.015,8.015,0,0,1-.5,8.015l-10.849,16.274a8,8,0,0,0-1.263,3.306l-7.019,49.132H136v-64a8,8,0,0,0-2.343-5.658l-12.67-12.668a41.781,41.781,0,0,1-11.73-22.8l-.173-1.036A77.862,77.862,0,0,1,119.112,285.875ZM53.667,351.07a61.868,61.868,0,0,0,24.842-11.106l13.612-10.209A93.487,93.487,0,0,0,93.3,341.32l.173,1.035c.116.7.248,1.4.39,2.092l-4.4,3.3a45.617,45.617,0,0,1-45.6,5.287Zm429.988-52.938c-.009-.07-.02-.14-.032-.21a218.606,218.606,0,0,0-12.652-45.19,37.89,37.89,0,0,0-16.222-18.8A23.875,23.875,0,0,0,440,228.846v-9.438a35.046,35.046,0,0,0,8-22.389v-2.265l8.984-13.475a28.911,28.911,0,0,0-24.055-44.947h-6.507l-11.25-7.5a23.737,23.737,0,0,0-35.686,27.257L384,169.63v27.389a35.046,35.046,0,0,0,8,22.389v7.823l-41.165-27.444-21.442-71.474A32,32,0,1,0,288,136.543v20.3a8,8,0,0,0,2.343,5.657l6.115,6.114,7.623,53.361a7.994,7.994,0,0,0,3.269,5.377l56,40c.028.02.059.033.087.052s.082.066.125.1L384,281.127v35.719H346a26.029,26.029,0,0,0-26,26v14a8,8,0,0,0,8,8h14.061a41.382,41.382,0,0,0,3.21,15.849l.952,2.287-25.94,15.564a33.54,33.54,0,0,0,17.257,62.3H424a8,8,0,0,0,8-8V423.031a57.859,57.859,0,0,0,32.235,2.7A39.475,39.475,0,0,0,484.4,414.917c.413-.412.815-.833,1.212-1.266a39.352,39.352,0,0,0,9.683-32.3ZM464,332.846V282.663c1.536,5.872,2.824,11.807,3.824,17.786l8.253,59.168-18.093-8.129A31.817,31.817,0,0,0,464,332.846Zm-18.285-85.588A7.974,7.974,0,0,1,448,252.846v24H432v-24a8.012,8.012,0,0,1,6.349-7.827A21.9,21.9,0,0,1,445.715,247.258Zm-40.058-36.583A19.185,19.185,0,0,1,400,197.019V176.332h19.719L432,194.754v2.265a19.185,19.185,0,0,1-5.657,13.656A8,8,0,0,0,424,216.332v12.514H408V216.332A8,8,0,0,0,405.657,210.675Zm-9.122-67.564a7.76,7.76,0,0,1,9.762-.965l13.266,8.842A8,8,0,0,0,424,152.332h8.929A12.91,12.91,0,0,1,443.671,172.4L440,177.91,430.656,163.9A8,8,0,0,0,424,160.332H397.766l-3.1-9.3A7.7,7.7,0,0,1,396.535,143.111ZM304,92.846a15.922,15.922,0,0,1,10.32,3.793,129.557,129.557,0,0,1-23.962,3.89A15.989,15.989,0,0,1,304,92.846ZM290.01,116.6a145.553,145.553,0,0,0,29.714-4.822,15.783,15.783,0,0,1-2.1,5.434c-.051.016-.1.026-.153.043L298.1,123.713A15.948,15.948,0,0,1,290.01,116.6ZM367.135,250.4l-47.7-34.071-7.517-52.611a8,8,0,0,0-2.262-4.526L304,153.532V138.611l10.707-3.568,21.63,72.1a8.007,8.007,0,0,0,3.225,4.357l39.881,26.587Zm13.422,9.207,14.757-14.757h22.062a23.885,23.885,0,0,0-1.376,8v64H400v-40a8,8,0,0,0-3.562-6.657ZM336,348.846v-6a10.011,10.011,0,0,1,10-10h78a8,8,0,0,0,8-8v-32h16v40a16.019,16.019,0,0,1-16,16Zm17.344,83.562A8,8,0,0,0,352,436.846v8H337.54a17.54,17.54,0,0,1-9.025-32.58l23.928-14.356,9.192,22.061ZM416,444.846H368v-5.578l6.948-10.422H416Zm57.812-42c-.235.256-.475.507-.726.758a23.537,23.537,0,0,1-12.018,6.446,41.887,41.887,0,0,1-23.959-2.192l-17.591-7.062-21.006-29.438a8,8,0,1,0-13.024,9.292l22.976,32.2H376l-15.96-38.305a25.453,25.453,0,0,1-1.972-9.695H432a31.81,31.81,0,0,0,11.71-2.229l34.99,15.72.75,5.27A23.409,23.409,0,0,1,473.812,402.842ZM205,156.845a7,7,0,1,1,7,7A7,7,0,0,1,205,156.845ZM46.245,406.851A54.784,54.784,0,0,1,30.362,404.5,8,8,0,1,1,35,389.189a38.974,38.974,0,0,0,31.178-3.806l5.73-3.411a8,8,0,1,1,8.184,13.748l-5.729,3.411A55.006,55.006,0,0,1,46.245,406.851ZM173.533,110.572a8,8,0,0,1,.594,11.3L167,129.795a35.894,35.894,0,0,0-9.229,24.051,8,8,0,0,1-16,0A51.871,51.871,0,0,1,155.1,119.092l7.133-7.925A8,8,0,0,1,173.533,110.572Zm192.5-36.951.64.967a8,8,0,1,1-13.34,8.834l-.642-.969A23.267,23.267,0,0,0,333.238,72a8,8,0,0,1,0-16A39.227,39.227,0,0,1,366.03,73.621Z" style="fill:url(#linear-gradient)"/></g></svg>
