<svg width="100" height="100" viewBox="0 0 100 100" fill="none" xmlns="http://www.w3.org/2000/svg">
<g id="list 1" clip-path="url(#clip0)">
<path id="Vector" d="M90.7975 12.0521H9.20254C3.95259 12.0521 -0.5 15.5486 -0.5 20.0547C-0.5 24.5558 3.95282 28.0521 9.20254 28.0521H90.7975C96.0472 28.0521 100.5 24.5558 100.5 20.0547C100.5 15.5486 96.0474 12.0521 90.7975 12.0521Z" fill="#6B00B3" stroke="#41DFD0"/>
<path id="Vector_2" d="M90.7975 40.2943H9.20254C3.95259 40.2943 -0.5 43.7907 -0.5 48.2969C-0.5 52.798 3.95282 56.2943 9.20254 56.2943H90.7975C96.0472 56.2943 100.5 52.798 100.5 48.2969C100.5 43.7907 96.0474 40.2943 90.7975 40.2943Z" fill="#6B00B3" stroke="#41DFD0"/>
<path id="Vector_3" d="M90.7975 68.5365H9.20254C3.95258 68.5365 -0.5 72.0331 -0.5 76.5391C-0.5 81.0401 3.95282 84.5365 9.20254 84.5365H90.7975C96.0472 84.5365 100.5 81.0401 100.5 76.5391C100.5 72.0331 96.0474 68.5365 90.7975 68.5365Z" fill="#6B00B3" stroke="#41DFD0"/>
</g>
<defs>
<clipPath id="clip0">
<rect width="100" height="100" fill="white"/>
</clipPath>
</defs>
</svg>
