<svg width="100" height="100" viewBox="0 0 100 100" fill="none" xmlns="http://www.w3.org/2000/svg">
<g clip-path="url(#clip0)">
<path d="M57.8124 54.9564C56.7343 54.9564 55.8593 55.8314 55.8593 56.9095C55.8593 57.9877 56.7343 58.8627 57.8124 58.8627C58.8905 58.8627 59.7655 57.9877 59.7655 56.9095C59.7655 55.8314 58.8905 54.9564 57.8124 54.9564Z" fill="url(#paint0_linear)"/>
<path d="M75.2384 65.4724C73.4075 63.6425 68.9675 58.6898 65.4647 50.6577C62.86 44.4081 56.8032 40.3708 50.0296 40.3708C43.2573 40.3708 37.2014 44.4087 34.5961 50.6597C30.2016 60.739 24.1981 66.073 24.1404 66.1234C24.1334 66.1294 24.1266 66.1357 24.1197 66.1417C20.5787 69.3123 18.5479 73.8541 18.5479 78.6025C18.5479 84.4074 21.3121 89.4557 26.1074 92.6543C30.5754 95.6352 36.1131 96.5289 41.2997 95.1068C43.8989 94.3947 46.9073 94.0182 50.0003 94.0182C53.1454 94.0182 56.1983 94.4072 58.829 95.1432C63.8632 96.5523 69.3888 95.7797 73.9503 92.7658C78.8007 89.5609 81.6128 84.465 81.6128 78.6025C81.6128 73.4464 79.2913 68.6681 75.2384 65.4724ZM71.7964 89.5066C68.2763 91.8324 63.9335 92.5156 59.8813 91.3814C56.9124 90.5508 53.4956 90.1119 49.9997 90.1119C46.5629 90.1119 43.1975 90.5365 40.2664 91.3396C36.1715 92.4625 31.8008 91.7572 28.2746 89.4049C24.593 86.9488 22.4535 83.1092 22.4535 78.6023C22.4535 74.9668 24.0074 71.4888 26.717 69.0587C27.1338 68.6933 33.4721 63.0187 38.183 52.2052C38.1873 52.195 38.1918 52.1849 38.1959 52.1747C40.1897 47.3771 44.8342 44.277 50.0288 44.277C55.2253 44.2769 59.8708 47.3763 61.864 52.1728C61.8681 52.1829 61.8725 52.1931 61.8768 52.2032C65.7022 60.9825 70.6276 66.4025 72.5675 68.3255C72.6233 68.3806 72.6823 68.4326 72.744 68.4806C75.8976 70.9308 77.706 74.6201 77.706 78.6023C77.7064 83.1467 75.5321 87.0385 71.7964 89.5066Z" fill="url(#paint1_linear)"/>
<path d="M63.133 62.7319C62.5443 61.8281 61.3346 61.5721 60.4305 62.1609C59.5264 62.75 59.2709 63.96 59.8596 64.8637C62.8316 69.4268 65.6496 72.4659 67.0652 73.8713C67.8305 74.6311 69.0672 74.627 69.8276 73.8614C70.5875 73.0959 70.583 71.8592 69.8176 71.0991C68.5121 69.803 65.9078 66.9926 63.133 62.7319Z" fill="url(#paint2_linear)"/>
<path d="M43.6701 30.8487C45.5468 27.5685 46.3292 23.2116 45.8167 18.8966C44.8253 10.4956 39.0314 3.45786 32.5581 4.2352C29.6351 4.5811 27.0362 6.49985 25.2392 9.63795C23.3636 12.9157 22.5812 17.2725 23.0925 21.5907C24.7118 35.3105 37.4839 41.6548 43.6701 30.8487ZM28.6294 11.5784C29.6986 9.7106 31.3663 8.08638 33.5161 8.08638C37.3601 8.08638 41.2167 13.2464 41.9378 19.3557C42.3538 22.8583 41.7495 26.3401 40.28 28.9085C35.7786 36.7726 28.0353 30.1425 26.9716 21.1321C26.5566 17.6268 27.161 14.1446 28.6294 11.5784Z" fill="url(#paint3_linear)"/>
<path d="M24.9608 51.8556C25.5262 48.3746 24.8391 44.5247 23.0262 41.0152C21.2125 37.5048 18.47 34.7163 15.3034 33.1632C11.9403 31.5136 8.49611 31.4284 5.60548 32.9232C2.71485 34.4167 0.79258 37.2747 0.192189 40.9714C-0.373242 44.4527 0.313869 48.3023 2.12676 51.8123C3.94063 55.3216 6.68322 58.1095 9.84982 59.6627C12.9924 61.2041 16.4741 61.4922 19.5471 59.9045C22.4381 58.4109 24.3608 55.5523 24.9608 51.8556ZM17.7543 56.434C15.9907 57.3457 13.7946 57.2466 11.5701 56.1556C9.15021 54.9687 7.02912 52.789 5.59728 50.0189C4.16622 47.2484 3.61583 44.258 4.04786 41.5976C4.44493 39.1527 5.63517 37.3048 7.39904 36.3935C7.39923 36.3933 7.39943 36.3933 7.39963 36.3931C9.35002 35.3847 11.609 35.7019 13.5832 36.6702C16.003 37.8572 18.1241 40.037 19.5559 42.8081C20.987 45.5787 21.5373 48.5695 21.1053 51.2296C20.7084 53.6746 19.5182 55.5226 17.7543 56.434Z" fill="url(#paint4_linear)"/>
<path d="M64.6482 36.3457C70.5691 36.3457 75.974 29.8812 76.9527 21.6282C77.9927 12.8364 73.563 4.21747 66.5269 4.21747C60.605 4.21747 55.2007 10.6821 54.2243 18.9349C53.1831 27.7427 57.6259 36.3457 64.6482 36.3457ZM58.1036 19.3937C58.8267 13.2847 62.6841 8.12353 66.5273 8.12353C66.7081 8.12353 66.864 8.13232 67.0036 8.15048C69.0863 8.38193 70.6984 10.202 71.648 12.0605C72.9398 14.588 73.4593 17.9079 73.0738 21.1687C72.3232 27.4976 68.1283 32.9259 64.172 32.4124C64.1648 32.4117 64.1576 32.4107 64.1503 32.4097C62.3743 32.2007 60.6898 30.7769 59.5288 28.5034C58.2374 25.9757 57.7181 22.6554 58.1036 19.3937Z" fill="url(#paint5_linear)"/>
<path d="M99.8074 40.9792C98.5722 33.3726 91.696 29.7362 84.6962 33.171C78.1476 36.3835 73.8687 44.6589 75.0388 51.8636C76.2886 59.5603 83.2333 63.0636 90.1497 59.6707C96.7003 56.4576 100.977 48.1831 99.8074 40.9792ZM88.4294 56.1634C86.2052 57.2542 84.0091 57.3529 82.2452 56.4417V56.4419C80.4814 55.5304 79.2911 53.682 78.8942 51.2374C78.0013 45.7382 81.4017 39.1384 86.4165 36.6776C91.0122 34.4232 95.13 36.5458 95.9517 41.6052C96.8431 47.0943 93.4534 53.6994 88.4294 56.1634Z" fill="url(#paint6_linear)"/>
</g>
<defs>
<linearGradient id="paint0_linear" x1="57.8124" y1="54.9564" x2="57.8124" y2="58.8627" gradientUnits="userSpaceOnUse">
<stop stop-color="#7a00cc"/>
<stop offset="1" stop-color="#41DFD0"/>
</linearGradient>
<linearGradient id="paint1_linear" x1="50.0803" y1="40.3708" x2="50.0803" y2="95.8238" gradientUnits="userSpaceOnUse">
<stop stop-color="#7a00cc"/>
<stop offset="1" stop-color="#41DFD0"/>
</linearGradient>
<linearGradient id="paint2_linear" x1="64.9687" y1="61.8442" x2="64.9687" y2="74.4384" gradientUnits="userSpaceOnUse">
<stop stop-color="#7a00cc"/>
<stop offset="1" stop-color="#41DFD0"/>
</linearGradient>
<linearGradient id="paint3_linear" x1="34.4549" y1="4.17639" x2="34.4549" y2="36.3114" gradientUnits="userSpaceOnUse">
<stop stop-color="#7a00cc"/>
<stop offset="1" stop-color="#41DFD0"/>
</linearGradient>
<linearGradient id="paint4_linear" x1="12.5765" y1="31.8609" x2="12.5765" y2="60.9653" gradientUnits="userSpaceOnUse">
<stop stop-color="#7a00cc"/>
<stop offset="1" stop-color="#41DFD0"/>
</linearGradient>
<linearGradient id="paint5_linear" x1="65.5885" y1="4.21747" x2="65.5885" y2="36.3457" gradientUnits="userSpaceOnUse">
<stop stop-color="#7a00cc"/>
<stop offset="1" stop-color="#41DFD0"/>
</linearGradient>
<linearGradient id="paint6_linear" x1="87.4231" y1="31.8713" x2="87.4231" y2="60.9661" gradientUnits="userSpaceOnUse">
<stop stop-color="#7a00cc"/>
<stop offset="1" stop-color="#41DFD0"/>
</linearGradient>
<clipPath id="clip0">
<rect width="100" height="100" fill="white"/>
</clipPath>
</defs>
</svg>
