<svg width="100" height="100" viewBox="0 0 100 100" fill="none" xmlns="http://www.w3.org/2000/svg">
<path d="M82.8125 23.4375H73.2656L72.4844 19.6875C71.4531 14.6094 66.9531 10.9375 61.7813 10.9375H38.7656C33.5937 10.9375 29.0938 14.6094 28.0469 19.6875L27.2812 23.4375H17.1875C11.1563 23.4375 6.25 28.3438 6.25 34.375V76.5625C6.25 82.5937 11.1563 87.5 17.1875 87.5H82.8125C88.8437 87.5 93.75 82.5937 93.75 76.5625V34.375C93.75 28.3438 88.8437 23.4375 82.8125 23.4375ZM90.625 76.5625C90.625 80.875 87.125 84.375 82.8125 84.375H17.1875C12.875 84.375 9.375 80.875 9.375 76.5625V67.1875H18.75V64.0625H9.375V59.375H18.75V56.25H9.375V51.5625H18.75V48.4375H9.375V43.75H18.75V40.625H9.375V34.375C9.375 30.0625 12.875 26.5625 17.1875 26.5625H28.5625C29.2969 26.5625 29.9375 26.0469 30.0938 25.3125L31.1094 20.3125C31.8594 16.6875 35.0781 14.0625 38.7656 14.0625H61.7813C65.4688 14.0625 68.6875 16.6875 69.4375 20.3125L70.4531 25.3125C70.5938 26.0469 71.2344 26.5625 71.9844 26.5625H82.8125C87.125 26.5625 90.625 30.0625 90.625 34.375V40.625H81.25V43.75H90.625V48.4375H81.25V51.5625H90.625V56.25H81.25V59.375H90.625V64.0625H81.25V67.1875H90.625V76.5625Z" fill="url(#paint0_linear)"/>
<path d="M50 37.5C59.4766 37.5 67.1875 45.2109 67.1875 54.6875C67.1875 64.1641 59.4766 71.875 50 71.875C40.5234 71.875 32.8125 64.1641 32.8125 54.6875C32.8125 45.2109 40.5234 37.5 50 37.5ZM50 34.375C38.7813 34.375 29.6875 43.4688 29.6875 54.6875C29.6875 65.9062 38.7813 75 50 75C61.2187 75 70.3125 65.9062 70.3125 54.6875C70.3125 43.4688 61.2187 34.375 50 34.375Z" fill="url(#paint1_linear)"/>
<path d="M50 40.625C42.2328 40.625 35.9375 46.9203 35.9375 54.6875C35.9375 62.4547 42.2328 68.75 50 68.75" fill="url(#paint2_linear)"/>
<defs>
<linearGradient id="paint0_linear" x1="50" y1="10.9375" x2="50" y2="87.5" gradientUnits="userSpaceOnUse">
<stop stop-color="#EE83EF"/>
<stop offset="1" stop-color="#41DFD0"/>
</linearGradient>
<linearGradient id="paint1_linear" x1="50" y1="34.375" x2="50" y2="75" gradientUnits="userSpaceOnUse">
<stop stop-color="#EE83EF"/>
<stop offset="1" stop-color="#41DFD0"/>
</linearGradient>
<linearGradient id="paint2_linear" x1="42.9688" y1="38.95" x2="42.9688" y2="70.775" gradientUnits="userSpaceOnUse">
<stop stop-color="#6DC7FF"/>
<stop offset="1" stop-color="#E6ABFF"/>
</linearGradient>
</defs>
</svg>
