<svg width="100" height="100" viewBox="0 0 100 100" fill="none" xmlns="http://www.w3.org/2000/svg">
<path d="M93.3401 33.3332H38.0518C37.1309 33.3332 36.385 32.5866 36.385 31.6664C36.385 30.7465 37.1309 29.9997 38.0518 29.9997H93.3401C95.1743 29.9997 96.6667 28.5046 96.6667 26.6664C96.6667 24.8283 95.1743 23.3332 93.3401 23.3332H6.65991C4.82568 23.3332 3.33325 24.8283 3.33325 26.6664C3.33325 28.5046 4.82568 29.9997 6.65991 29.9997H28.9041C29.8249 29.9997 30.5708 30.7463 30.5708 31.6664C30.5708 32.5864 29.8249 33.3332 28.9041 33.3332H6.65991C2.98828 33.3332 0 30.3425 0 26.6667C0 22.9909 2.98828 19.9999 6.65991 19.9999H93.3398C97.0115 19.9999 99.9997 22.9907 99.9997 26.6667C99.9997 30.3427 97.0117 33.3332 93.3401 33.3332Z" fill="#41DFD0"/>
<path d="M1.66675 49.9999C1.66675 47.2382 3.91431 44.9999 6.66016 44.9999H93.3394C96.0969 44.9999 98.3328 47.2441 98.3328 49.9999C98.3328 52.7617 96.0852 54.9999 93.3394 54.9999H6.65991C3.90259 54.9999 1.66675 52.7558 1.66675 49.9999Z" fill="white"/>
<path d="M93.3401 56.6667H6.65991C2.98828 56.6667 0 53.6757 0 49.9999C0 46.3242 2.98828 43.3332 6.65991 43.3332H93.3398C97.0115 43.3332 99.9997 46.3239 99.9997 49.9999C99.9997 53.676 97.0117 56.6667 93.3401 56.6667ZM6.65991 46.6667C4.82568 46.6667 3.33325 48.1618 3.33325 49.9999C3.33325 51.8381 4.82568 53.3332 6.65991 53.3332H93.3398C95.1741 53.3332 96.6665 51.8381 96.6665 49.9999C96.6665 48.1618 95.1741 46.6667 93.3398 46.6667H6.65991Z" fill="#41DFD0"/>
<path d="M93.3401 80H6.65991C2.98828 80 0 77.0093 0 73.3333C0 69.6575 2.98828 66.6665 6.65991 66.6665H63.5791C64.5 66.6665 65.2459 67.4131 65.2459 68.3333C65.2459 69.2534 64.5 70 63.5791 70H6.65991C4.82568 70 3.33325 71.4951 3.33325 73.3333C3.33325 75.1714 4.82568 76.6665 6.65991 76.6665H93.3398C95.1741 76.6665 96.6665 75.1714 96.6665 73.3333C96.6665 71.4951 95.1741 70 93.3398 70H73.8184C72.8975 70 72.1516 69.2534 72.1516 68.3333C72.1516 67.4131 72.8975 66.6665 73.8184 66.6665H93.3401C97.0117 66.6665 100 69.6572 100 73.3333C100 77.0093 97.0117 80 93.3401 80Z" fill="#41DFD0"/>
</svg>
