<svg width="30" height="30" viewBox="0 0 100 100" fill="none" xmlns="http://www.w3.org/2000/svg">
<path d="M47.5308 1.74513C73.0915 3.10015 93.1637 24.1481 93.3047 49.7444C93.4457 75.3407 73.6067 96.6085 48.0624 98.2451C47.9524 98.2451 47.8474 98.2451 47.7374 98.2451C49.5111 98.3409 51.2887 98.3409 53.0624 98.2451C79.4445 96.3867 99.4338 73.6693 97.9203 47.2652C96.4067 20.8611 73.9524 0.576671 47.5308 1.74513V1.74513Z" fill="url(#paint0_linear)"/>
<path d="M78.5924 66.0918L67.779 59.3301C66.4624 58.5068 64.7517 58.7017 63.6541 59.8001L63.6057 59.8468L73.5924 66.0884C75.0488 66.9997 75.5741 68.8685 74.8057 70.4051L69.3724 81.2734C69.0803 81.8488 68.6276 82.327 68.069 82.6501C69.1707 82.8484 70.1624 82.9834 71.019 83.0951C72.4092 83.2562 73.7509 82.5273 74.3724 81.2734L79.8057 70.4051C80.572 68.8694 80.047 67.0028 78.5924 66.0918V66.0918Z" fill="url(#paint1_linear)"/>
<path d="M9.46238 78.8718L2.98071 95.0752C2.74251 95.6723 2.86905 96.3533 3.30591 96.825C3.74276 97.2968 4.412 97.4752 5.02571 97.2835L8.01238 96.3518C7.82965 95.9477 7.82002 95.4865 7.98571 95.0752L14.4624 78.8718C14.8571 77.8624 14.7417 76.7247 14.1524 75.8151C4.96033 61.2796 4.18447 42.9546 12.115 27.6941C20.0455 12.4336 35.4877 2.53672 52.6657 1.70513C34.5986 0.717393 17.4919 9.89984 8.33043 25.5032C-0.831013 41.1066 -0.513867 60.5194 9.15238 75.8151C9.74169 76.7247 9.85708 77.8624 9.46238 78.8718V78.8718Z" fill="url(#paint2_linear)"/>
<path d="M3.2574 32.3168L6.3724 33.5034C4.88853 37.5307 3.92735 41.7316 3.5124 46.0034L0.190735 45.7284C0.631488 41.1445 1.66223 36.6367 3.2574 32.3168V32.3168Z" fill="url(#paint3_linear)"/>
<path d="M41.3841 37.5335C43.0392 35.8917 43.3323 33.3207 42.0891 31.3485L35.3308 20.5352C33.9721 18.3399 31.1603 17.5481 28.8558 18.7118L17.9874 24.1452C16.1061 25.0854 15.0143 27.1025 15.2558 29.1918C16.3858 38.5068 20.5641 52.4468 34.0641 65.9452C47.5641 79.4435 61.5024 83.6235 70.8174 84.7535C72.9082 85.0026 74.9294 83.9086 75.8641 82.0218L81.2974 71.1535C82.4595 68.8488 81.668 66.0382 79.4741 64.6785L68.6608 57.9202C66.6892 56.6766 64.1184 56.9697 62.4774 58.6252L58.6441 62.4585C58.274 62.8358 57.7447 63.0114 57.2224 62.9302C52.256 61.9511 47.7194 59.4456 44.2458 55.7635C40.5633 52.2895 38.0577 47.7522 37.0791 42.7852C36.9989 42.2635 37.1744 41.7352 37.5508 41.3652L41.3841 37.5335ZM33.7841 43.3468C34.88 48.9962 37.7103 54.1632 41.8808 58.1285C45.846 62.299 51.0131 65.1292 56.6624 66.2252C58.2486 66.4832 59.862 65.9607 60.9958 64.8218L64.8291 60.9885C65.3778 60.4397 66.2326 60.3423 66.8908 60.7535L77.7041 67.5118C78.4323 67.9674 78.695 68.9019 78.3108 69.6702L72.8774 80.5368C72.5669 81.1592 71.9025 81.5233 71.2108 81.4502C62.4158 80.3852 49.2391 76.4218 36.4124 63.5952C23.5858 50.7685 19.6224 37.5952 18.5574 28.7968C18.4802 28.1043 18.8455 27.4377 19.4708 27.1302L30.3374 21.6968C30.5697 21.5802 30.8259 21.5192 31.0858 21.5185C31.6596 21.52 32.1922 21.8165 32.4958 22.3035L39.2624 33.1135C39.6736 33.7716 39.5762 34.6264 39.0274 35.1752L35.1941 39.0085C34.05 40.1414 33.5246 41.7578 33.7841 43.3468V43.3468Z" fill="url(#paint4_linear)"/>
<path d="M2.94577 40.9451C2.0253 40.9498 1.27538 40.2073 1.27077 39.2868C1.26617 38.3663 2.00863 37.6164 2.92911 37.6118H2.94577C3.86625 37.6118 4.61244 38.358 4.61244 39.2785C4.61244 40.199 3.86625 40.9451 2.94577 40.9451Z" fill="url(#paint5_linear)"/>
<path d="M7.91408 78.2518L1.43408 94.4551C0.955823 95.6499 1.20805 97.0132 2.0821 97.9578C2.95615 98.9024 4.29587 99.2594 5.52408 98.8751L23.7491 93.1801C24.2022 93.0399 24.6937 93.1005 25.0991 93.3468C32.6809 97.7143 41.2793 100.008 50.0291 99.9968C51.0724 99.9968 52.1174 99.9646 53.1641 99.9001C71.095 98.7625 87.0369 88.0917 94.9235 71.9482C102.81 55.8047 101.429 36.6709 91.3053 21.8276C81.1817 6.98429 63.8725 -1.28611 45.9641 0.163464C41.2781 0.58542 36.6698 1.63364 32.2624 3.28013C27.8679 4.95973 23.7369 7.26094 19.9957 10.1135C16.2211 12.9191 12.8793 16.2643 10.0774 20.0418C7.2453 23.7976 4.94993 27.9295 3.25741 32.3185C3.09452 32.7396 3.11057 33.209 3.30186 33.618C3.49315 34.027 3.84311 34.3402 4.27075 34.4851C5.12331 34.7784 6.05449 34.3405 6.37241 33.4968C7.9529 29.4011 10.0957 25.5452 12.7391 22.0401C15.3577 18.5115 18.4824 15.3885 22.0124 12.7718C25.5034 10.108 29.3589 7.95941 33.4607 6.3918C37.5676 4.85893 41.8604 3.87977 46.2258 3.48013C66.2288 1.85476 85.031 13.2003 92.9176 31.6547C100.804 50.1091 96.0088 71.5392 81.0092 84.8724C66.0095 98.2056 44.1651 100.456 26.7624 90.4601C25.5487 89.7556 24.0965 89.5878 22.7541 89.9968L4.52908 95.6935L11.0124 79.4968C11.6028 77.9906 11.4361 76.2927 10.5641 74.9301C5.09913 66.3221 2.62095 56.154 3.51241 45.9968C3.58881 45.0791 2.90679 44.2732 1.98908 44.1968C1.07137 44.1204 0.265479 44.8024 0.18908 45.7201C-0.762072 56.5985 1.89342 67.4876 7.74575 76.7068C8.04965 77.1638 8.11243 77.7401 7.91408 78.2518V78.2518Z" fill="url(#paint6_linear)"/>
<path d="M79.3874 22.8468C79.7893 23.2938 80.4007 23.4898 80.9876 23.3597C81.5744 23.2296 82.0457 22.7936 82.2211 22.2186C82.3964 21.6437 82.2485 21.0189 81.8341 20.5835C75.2291 13.4711 66.4402 8.76549 56.8591 7.2118C55.9814 7.12312 55.1866 7.73369 55.0461 8.60455C54.9056 9.47542 55.4681 10.305 56.3291 10.4968C65.1755 11.9322 73.2901 16.2784 79.3874 22.8468V22.8468Z" fill="url(#paint7_linear)"/>
<path d="M50.0124 9.99679C50.9328 9.99679 51.679 9.25059 51.679 8.33012C51.679 7.40964 50.9328 6.66345 50.0124 6.66345C49.0919 6.66345 48.3457 7.40964 48.3457 8.33012C48.3457 9.25059 49.0919 9.99679 50.0124 9.99679Z" fill="url(#paint8_linear)"/>
<defs>
<linearGradient id="paint0_linear" x1="72.7658" y1="1.69708" x2="72.7658" y2="98.317" gradientUnits="userSpaceOnUse">
<stop stop-color="#EE83EF"/>
<stop offset="1" stop-color="#41DFD0"/>
</linearGradient>
<linearGradient id="paint1_linear" x1="71.8813" y1="58.823" x2="71.8813" y2="83.1172" gradientUnits="userSpaceOnUse">
<stop stop-color="#EE83EF"/>
<stop offset="1" stop-color="#41DFD0"/>
</linearGradient>
<linearGradient id="paint2_linear" x1="27.1701" y1="1.63275" x2="27.1701" y2="97.3594" gradientUnits="userSpaceOnUse">
<stop stop-color="#EE83EF"/>
<stop offset="1" stop-color="#41DFD0"/>
</linearGradient>
<linearGradient id="paint3_linear" x1="3.28157" y1="32.3168" x2="3.28157" y2="46.0034" gradientUnits="userSpaceOnUse">
<stop stop-color="#EE83EF"/>
<stop offset="1" stop-color="#41DFD0"/>
</linearGradient>
<linearGradient id="paint4_linear" x1="48.5269" y1="18.1769" x2="48.5269" y2="84.7886" gradientUnits="userSpaceOnUse">
<stop stop-color="#EE83EF"/>
<stop offset="1" stop-color="#41DFD0"/>
</linearGradient>
<linearGradient id="paint5_linear" x1="2.9416" y1="37.6118" x2="2.9416" y2="40.9452" gradientUnits="userSpaceOnUse">
<stop stop-color="#EE83EF"/>
<stop offset="1" stop-color="#41DFD0"/>
</linearGradient>
<linearGradient id="paint6_linear" x1="49.9991" y1="0" x2="49.9991" y2="99.9968" gradientUnits="userSpaceOnUse">
<stop stop-color="#EE83EF"/>
<stop offset="1" stop-color="#41DFD0"/>
</linearGradient>
<linearGradient id="paint7_linear" x1="68.6591" y1="7.20325" x2="68.6591" y2="23.3993" gradientUnits="userSpaceOnUse">
<stop stop-color="#EE83EF"/>
<stop offset="1" stop-color="#41DFD0"/>
</linearGradient>
<linearGradient id="paint8_linear" x1="50.0124" y1="6.66345" x2="50.0124" y2="9.99679" gradientUnits="userSpaceOnUse">
<stop stop-color="#EE83EF"/>
<stop offset="1" stop-color="#41DFD0"/>
</linearGradient>
</defs>
</svg>
