<svg width="100" height="100" viewBox="0 0 100 100" fill="none" xmlns="http://www.w3.org/2000/svg">
<g clip-path="url(#clip0)">
<path d="M50 73.3333C67.4891 73.3333 81.6667 59.1557 81.6667 41.6667C81.6667 24.1777 67.4891 10 50 10C32.511 10 18.3334 24.1777 18.3334 41.6667C18.3527 59.1477 32.519 73.3141 50 73.3333ZM50 13.3333C65.6481 13.3333 78.3334 26.0186 78.3334 41.6667C78.3334 57.3147 65.6481 70 50 70C34.352 70 21.6667 57.3147 21.6667 41.6667C21.6842 26.0258 34.3592 13.3508 50 13.3333Z" fill="url(#paint0_linear)"/>
<path d="M10.8334 35.1417C9.40899 37.0416 8.54317 39.3014 8.33337 41.6667C8.54317 44.032 9.40899 46.2917 10.8334 48.1917C11.5822 49.2712 12.1784 50.449 12.605 51.6917C12.8693 53.034 12.9495 54.406 12.8434 55.77C12.5643 58.0691 12.9343 60.4004 13.9117 62.5C15.2555 64.4182 17.1118 65.9198 19.2684 66.8333C20.4846 67.4092 21.6162 68.1488 22.6317 69.0317C23.1801 69.6192 23.6526 70.2732 24.0384 70.9783L18.3917 91.795C18.2277 92.3977 18.4145 93.0414 18.8755 93.4628C19.3366 93.8842 19.9945 94.0124 20.58 93.795L31.8017 89.6283C32.4668 89.3828 33.2144 89.5887 33.66 90.14L41.2267 99.39C41.5435 99.7764 42.017 100 42.5167 100C42.6332 100 42.7495 99.9879 42.8634 99.9633C43.4743 99.8334 43.9613 99.3728 44.125 98.77L48.3684 83.1383C49.4232 83.3949 50.5237 83.3984 51.58 83.1483L55.8084 98.7683C55.9716 99.3709 56.4579 99.8318 57.0684 99.9624C57.6789 100.093 58.3112 99.8714 58.7067 99.3883L66.275 90.1383C66.7297 89.5873 67.4825 89.383 68.1534 89.6283L79.3517 93.795C79.9374 94.0133 80.5961 93.8855 81.0576 93.4639C81.5192 93.0424 81.7061 92.3981 81.5417 91.795L75.9117 71.065C76.3087 70.3294 76.7977 69.6473 77.3667 69.035C78.3823 68.151 79.5146 67.4108 80.7317 66.835C82.8884 65.9217 84.7447 64.42 86.0884 62.5017C87.0676 60.3997 87.4378 58.0652 87.1567 55.7633C87.0506 54.3994 87.1307 53.0273 87.395 51.685C87.8221 50.4425 88.4182 49.2648 89.1667 48.185C90.5899 46.287 91.4557 44.0296 91.6667 41.6667C91.4569 39.3014 90.5911 37.0416 89.1667 35.1417C88.4178 34.0621 87.8217 32.8843 87.395 31.6417C87.1307 30.2994 87.0506 28.9273 87.1567 27.5633C87.4377 25.261 87.0676 22.9259 86.0884 20.8233C84.7446 18.9051 82.8883 17.4035 80.7317 16.49C79.516 15.9168 78.3844 15.1799 77.3684 14.3C76.4838 13.2845 75.743 12.1522 75.1667 10.935C74.2534 8.77829 72.7517 6.92202 70.8334 5.57833C68.7318 4.59778 66.3969 4.2276 64.095 4.51C62.7311 4.61692 61.3589 4.53673 60.0167 4.27167C58.7742 3.84462 57.5965 3.24846 56.5167 2.5C54.6191 1.07705 52.3624 0.211313 50 0C47.6348 0.209797 45.375 1.07561 43.475 2.5C42.3955 3.24886 41.2177 3.84505 39.975 4.27167C38.6329 4.53767 37.2607 4.61787 35.8967 4.51C33.5943 4.22882 31.2593 4.59894 29.1567 5.57833C27.2385 6.92215 25.7369 8.77838 24.8234 10.935C24.2501 12.1507 23.5133 13.2823 22.6334 14.2983C21.6179 15.1829 20.4856 15.9237 19.2684 16.5C17.1117 17.4133 15.2554 18.915 13.9117 20.8333C12.9325 22.9353 12.5623 25.2698 12.8434 27.5717C12.9495 28.9356 12.8693 30.3077 12.605 31.65C12.1773 32.8896 11.5812 34.0645 10.8334 35.1417V35.1417ZM41.7567 94.7717L36.24 88.0283C34.892 86.3718 32.6383 85.7584 30.6367 86.5033L22.4567 89.5433L26.395 75.0317C27.0987 76.1376 28.0448 77.0688 29.1617 77.755C31.2639 78.7336 33.5982 79.1037 35.9 78.8233C37.264 78.7188 38.6359 78.799 39.9784 79.0617C41.2209 79.4887 42.3986 80.0849 43.4784 80.8333C44.0467 81.185 44.645 81.5467 45.2584 81.885L41.7567 94.7717ZM69.3184 86.5C67.3107 85.7497 65.0481 86.3624 63.6934 88.0233L58.1784 94.765L54.6984 81.9067C55.3317 81.56 55.9417 81.1883 56.5317 80.8283C57.6113 80.0795 58.789 79.4833 60.0317 79.0567C61.3741 78.7932 62.7461 78.7131 64.11 78.8183C66.4124 79.0984 68.7472 78.7284 70.85 77.75C71.9423 77.0822 72.8706 76.1777 73.5667 75.1033L77.4867 89.535L69.3184 86.5ZM13.6667 36.8917C14.5977 35.5404 15.3275 34.061 15.8334 32.5C16.1887 30.8491 16.306 29.1558 16.1817 27.4717C15.962 25.7853 16.1759 24.0707 16.8034 22.49C17.8694 21.1371 19.266 20.0815 20.8584 19.425C22.3649 18.7045 23.7589 17.7692 24.9967 16.6483C26.1165 15.4106 27.0512 14.0172 27.7717 12.5117C28.4285 10.9222 29.4828 9.52812 30.8334 8.46333C32.4133 7.83291 34.1286 7.61885 35.815 7.84167C37.4956 7.96648 39.1853 7.85144 40.8334 7.5C42.3949 6.99414 43.8748 6.26431 45.2267 5.33333C46.6168 4.26287 48.2621 3.57351 50 3.33333C51.7385 3.57376 53.3842 4.26308 54.775 5.33333C56.1264 6.26429 57.6057 6.99412 59.1667 7.5C60.8179 7.85359 62.5109 7.97087 64.195 7.84833C65.8814 7.62858 67.596 7.84254 69.1767 8.47C70.5296 9.53607 71.5852 10.9326 72.2417 12.525C72.9622 14.0315 73.8975 15.4255 75.0184 16.6633C76.2561 17.7831 77.6495 18.7178 79.155 19.4383C80.7475 20.0955 82.144 21.1517 83.21 22.505C83.8375 24.0857 84.0515 25.8003 83.8317 27.4867C83.7042 29.1652 83.817 30.8533 84.1667 32.5C84.6726 34.0616 85.4024 35.5414 86.3334 36.8933C87.4038 38.2834 88.0932 39.9287 88.3334 41.6667C88.093 43.4051 87.4036 45.0508 86.3334 46.4417C85.4024 47.793 84.6726 49.2723 84.1667 50.8333C83.8114 52.4843 83.6941 54.1775 83.8184 55.8617C84.0381 57.5481 83.8242 59.2627 83.1967 60.8433C82.1306 62.1962 80.7341 63.2518 79.1417 63.9083C77.6352 64.6288 76.2412 65.5641 75.0034 66.685C73.8836 67.9227 72.9489 69.3161 72.2284 70.8217C71.5712 72.4142 70.5151 73.8106 69.1617 74.8767C67.5809 75.5035 65.8664 75.7174 64.18 75.4983C62.5015 75.37 60.8133 75.4828 59.1667 75.8333C57.6052 76.3392 56.1253 77.069 54.7734 78C53.3833 79.0705 51.738 79.7598 50 80C48.2616 79.7596 46.6159 79.0703 45.225 78C43.8737 77.069 42.3944 76.3392 40.8334 75.8333C39.6881 75.5561 38.5114 75.43 37.3334 75.4583C36.82 75.4583 36.31 75.4717 35.8034 75.485C34.117 75.7075 32.4017 75.4935 30.8217 74.8633C29.4688 73.7973 28.4132 72.4008 27.7567 70.8083C27.0362 69.3018 26.1009 67.9079 24.98 66.67C23.7423 65.5502 22.349 64.6155 20.8434 63.895C19.2509 63.2378 17.8544 62.1817 16.7884 60.8283C16.1609 59.2477 15.947 57.5331 16.1667 55.8467C16.2947 54.1682 16.1825 52.4801 15.8334 50.8333C15.3275 49.2718 14.5977 47.7919 13.6667 46.44C12.5962 45.0499 11.9069 43.4046 11.6667 41.6667C11.9071 39.9283 12.5964 38.2825 13.6667 36.8917V36.8917Z" fill="url(#paint1_linear)"/>
<path d="M40.815 45.3217C40.6133 45.6917 40.4183 46.05 40.2233 46.39C39.6422 47.3309 39.0026 48.2343 38.3083 49.095C36.6817 51.21 35 53.3967 35 55.8884C35 59.47 38.8233 63.3334 45 63.3334C46.2774 63.3615 47.5533 63.2305 48.7983 62.9434C49.5862 62.7417 50.4121 62.7417 51.2 62.9434C52.4456 63.2305 53.7221 63.3615 55 63.3334C61.1767 63.3334 65 59.47 65 55.8884C65 53.3884 63.3183 51.21 61.6917 49.095C60.9974 48.2343 60.3578 47.3309 59.7767 46.39C59.5817 46.0567 59.3867 45.6917 59.185 45.3217C57.6667 42.5384 55.3833 38.3334 50 38.3334C44.6167 38.3334 42.3333 42.5384 40.815 45.3217V45.3217ZM50 41.6667C53.1667 41.6667 54.5333 43.745 56.2567 46.9134C56.4717 47.31 56.68 47.6934 56.89 48.055C57.5441 49.1258 58.2679 50.1525 59.0567 51.1284C60.3433 52.795 61.6733 54.53 61.6733 55.8884C61.6667 57.875 58.9883 60 55 60C54.0083 60.0299 53.0167 59.9358 52.0483 59.72C50.7056 59.3667 49.2944 59.3667 47.9517 59.72C46.9833 59.9358 45.9917 60.0299 45 60C41.0117 60 38.3333 57.875 38.3333 55.8884C38.3333 54.53 39.6667 52.8 40.95 51.1284C41.7387 50.1525 42.4625 49.1258 43.1167 48.055C43.3267 47.6934 43.535 47.31 43.75 46.9134C45.4667 43.745 46.8333 41.6667 50 41.6667Z" fill="url(#paint2_linear)"/>
<path d="M37.9467 34.8334C39.0941 35.9056 40.5965 36.5174 42.1667 36.5517C42.5254 36.5517 42.8832 36.5165 43.235 36.4467C45.1361 36.0131 46.7187 34.7033 47.5 32.9167C48.3451 31.0506 48.5671 28.9621 48.1333 26.96C47.2267 22.46 43.545 19.3834 39.9517 20.1067C36.3583 20.83 34.155 25.09 35.0633 29.595C35.4388 31.6048 36.4495 33.441 37.9467 34.8334V34.8334ZM40.6017 23.3684C40.7424 23.3426 40.8853 23.3309 41.0283 23.3334C42.675 23.3334 44.3617 25.1667 44.8617 27.6184C45.1467 28.914 45.0155 30.2666 44.4867 31.4834C44.146 32.3112 43.4435 32.9362 42.5817 33.1784C41.6918 33.2877 40.8012 32.9802 40.1683 32.345C39.2098 31.428 38.5652 30.2317 38.3267 28.9267C37.7867 26.28 38.8333 23.7334 40.6017 23.375V23.3684Z" fill="url(#paint3_linear)"/>
<path d="M32.9317 46.7416C33.8256 46.7481 34.7026 46.4976 35.4584 46.02C36.7035 45.1882 37.5013 43.8339 37.625 42.3416C37.7611 40.8346 37.384 39.3258 36.555 38.06C35.0594 35.3133 31.6367 34.2745 28.8667 35.7267C26.3858 37.6321 25.8945 41.1765 27.7634 43.685C28.5642 44.9687 29.7752 45.9442 31.2 46.4533C31.7577 46.6432 32.3426 46.7406 32.9317 46.7416V46.7416ZM30.5784 41.8883C29.7667 40.62 29.8084 39.0833 30.6684 38.5316C30.8898 38.3962 31.1455 38.3273 31.405 38.3333C32.3891 38.4323 33.2643 39.0019 33.7534 39.8616C34.1727 40.4924 34.3709 41.2445 34.3167 42C34.3251 42.4928 34.0774 42.9547 33.6623 43.2204C33.2472 43.486 32.7239 43.5174 32.28 43.3033C31.5715 43.0336 30.9728 42.5358 30.5784 41.8883V41.8883Z" fill="url(#paint4_linear)"/>
<path d="M56.7634 36.4467C57.1152 36.5165 57.4731 36.5517 57.8318 36.5517C59.4025 36.5178 60.9055 35.906 62.0534 34.8334C63.5549 33.4404 64.5687 31.6016 64.9451 29.5884C65.8534 25.0884 63.6601 20.8284 60.0568 20.1C56.4534 19.3717 52.7817 22.4484 51.8751 26.9534C51.4413 28.9554 51.6634 31.0439 52.5084 32.91C53.286 34.6967 54.8647 36.0089 56.7634 36.4467V36.4467ZM55.1417 27.6134C55.6351 25.1667 57.3334 23.3334 58.9718 23.3334C59.115 23.3332 59.2579 23.3471 59.3984 23.375C61.1701 23.7334 62.2134 26.28 61.6768 28.935C61.4411 30.2392 60.7995 31.4356 59.8434 32.3534C59.2466 33.0432 58.3246 33.3583 57.4304 33.1782C56.5362 32.998 55.8082 32.3505 55.5251 31.4834C54.9935 30.2676 54.8593 28.9149 55.1417 27.6184V27.6134Z" fill="url(#paint5_linear)"/>
<path d="M63.4384 38.06C62.6094 39.3258 62.2323 40.8346 62.3684 42.3416C62.4922 43.8339 63.2899 45.1882 64.5351 46.02C65.2908 46.4976 66.1678 46.7481 67.0617 46.7416C67.6487 46.7394 68.2313 46.6414 68.7867 46.4516C70.2115 45.9425 71.4225 44.967 72.2234 43.6833C74.0923 41.1748 73.6009 37.6305 71.12 35.725C68.3515 34.2746 64.9314 35.3143 63.4384 38.06V38.06ZM66.2467 39.8566C66.7371 38.999 67.612 38.4315 68.5951 38.3333C68.8551 38.3288 69.1108 38.3994 69.3317 38.5366C70.1917 39.0883 70.2334 40.625 69.4217 41.8933C69.0259 42.5377 68.4274 43.0324 67.72 43.3C67.2767 43.5138 66.7542 43.4827 66.3392 43.2179C65.9243 42.953 65.6761 42.4922 65.6834 42C65.6281 41.2428 65.8263 40.4888 66.2467 39.8566V39.8566Z" fill="url(#paint6_linear)"/>
</g>
<defs>
<linearGradient id="paint0_linear" x1="50" y1="10" x2="50" y2="73.3333" gradientUnits="userSpaceOnUse">
<stop stop-color="#EE83EF"/>
<stop offset="1" stop-color="#41DFD0"/>
</linearGradient>
<linearGradient id="paint1_linear" x1="50" y1="0" x2="50" y2="100" gradientUnits="userSpaceOnUse">
<stop stop-color="#EE83EF"/>
<stop offset="1" stop-color="#41DFD0"/>
</linearGradient>
<linearGradient id="paint2_linear" x1="50" y1="38.3334" x2="50" y2="63.3371" gradientUnits="userSpaceOnUse">
<stop stop-color="#EE83EF"/>
<stop offset="1" stop-color="#41DFD0"/>
</linearGradient>
<linearGradient id="paint3_linear" x1="41.6042" y1="20.0013" x2="41.6042" y2="36.5517" gradientUnits="userSpaceOnUse">
<stop stop-color="#EE83EF"/>
<stop offset="1" stop-color="#41DFD0"/>
</linearGradient>
<linearGradient id="paint4_linear" x1="32.1408" y1="35.0709" x2="32.1408" y2="46.7418" gradientUnits="userSpaceOnUse">
<stop stop-color="#EE83EF"/>
<stop offset="1" stop-color="#41DFD0"/>
</linearGradient>
<linearGradient id="paint5_linear" x1="58.4045" y1="19.9933" x2="58.4045" y2="36.5517" gradientUnits="userSpaceOnUse">
<stop stop-color="#EE83EF"/>
<stop offset="1" stop-color="#41DFD0"/>
</linearGradient>
<linearGradient id="paint6_linear" x1="67.8493" y1="35.0706" x2="67.8493" y2="46.7418" gradientUnits="userSpaceOnUse">
<stop stop-color="#EE83EF"/>
<stop offset="1" stop-color="#41DFD0"/>
</linearGradient>
<clipPath id="clip0">
<rect width="100" height="100" fill="white"/>
</clipPath>
</defs>
</svg>
