<svg width="30" height="30" viewBox="0 0 30 30" fill="none" xmlns="http://www.w3.org/2000/svg">
<path d="M16.3632 0.751641L1.92416 15.1907C1.42348 15.6915 1.17311 16.3492 1.17311 17.0069C1.17311 17.6646 1.42348 18.3223 1.92416 18.8231L4.24559 21.1445L1.69658 23.6935C1.58215 23.8079 1.52496 23.9579 1.52496 24.1078C1.52496 24.2577 1.58215 24.4077 1.69658 24.5221C1.92539 24.7509 2.29641 24.751 2.52521 24.5221L5.07422 21.9731L6.13588 23.0348L0.171621 28.9991C0.0571875 29.1135 0 29.2635 0 29.4135C0 29.5634 0.0571875 29.7134 0.171621 29.8278C0.40043 30.0566 0.771445 30.0566 1.00031 29.8278L6.96463 23.8635L11.1763 28.0752C12.1778 29.0766 13.8073 29.0766 14.8087 28.0752L29.2477 13.6362C29.7328 13.1511 30 12.5061 30 11.8201C30 11.134 29.7328 10.489 29.2477 10.0039L19.9955 0.751641C18.9941 -0.249784 17.3646 -0.249784 16.3632 0.751641ZM28.4191 10.8325C28.5792 10.9925 28.6952 11.1847 28.762 11.3943H17.8171V1.22068C18.2834 1.09617 18.8018 1.21523 19.1669 1.58033L28.4191 10.8325ZM13.9801 27.2466C13.9056 27.3211 13.8243 27.3844 13.7387 27.4386V16.6447H15.2487C16.6649 16.6447 17.8172 15.4925 17.8172 14.0762V12.5662H24.5334L21.1428 15.9569C21.0284 16.0713 20.9712 16.2213 20.9712 16.3712C20.9712 16.5212 21.0284 16.6711 21.1428 16.7855C21.3716 17.0143 21.7426 17.0143 21.9715 16.7855L26.1904 12.5667C26.1905 12.5665 26.1906 12.5664 26.1907 12.5662H28.6123C28.5575 12.6526 28.4932 12.7336 28.4191 12.8076L13.9801 27.2466ZM2.39314 16.6447H12.5668V27.5879C12.3612 27.5224 12.1677 27.4094 12.0049 27.2466L2.75279 17.9944C2.3877 17.6293 2.26863 17.1109 2.39314 16.6447ZM16.6453 2.12689V14.0762C16.6453 14.8463 16.0188 15.4728 15.2487 15.4728H10.4488L12.1863 13.7353C12.4151 13.5065 12.4151 13.1355 12.1863 12.9067C11.9574 12.6779 11.5864 12.6778 11.3576 12.9067L8.79146 15.4728H7.08434L12.3816 10.1756C12.6103 9.94675 12.6104 9.57574 12.3816 9.34687C12.1528 9.11806 11.7817 9.11806 11.5529 9.34687L5.42707 15.4728H3.29941L16.6453 2.12689Z" fill="url(#paint0_linear)"/>
<defs>
<linearGradient id="paint0_linear" x1="15" y1="0.000572205" x2="15" y2="29.9994" gradientUnits="userSpaceOnUse">
<stop stop-color="#EE83EF"/>
<stop offset="1" stop-color="#41DFD0"/>
</linearGradient>
</defs>
</svg>
