<svg width="100" height="100" viewBox="0 0 100 100" fill="none" xmlns="http://www.w3.org/2000/svg">
<path d="M70.3125 70.3125H73.4375C73.6947 70.3125 73.9479 70.249 74.1747 70.1276C74.4015 70.0063 74.5948 69.8308 74.7375 69.6168L80.9875 60.2418C81.1082 60.0606 81.1898 59.8563 81.227 59.6417C81.2642 59.4272 81.2561 59.2073 81.2033 58.9961L78.0783 46.4961C77.984 46.119 77.7526 45.7906 77.4293 45.575L68.75 39.7889V20.9473L76.5625 17.9101V37.5H79.6875V15.625C79.6869 15.5534 79.6815 15.482 79.6713 15.4111C79.6689 15.3953 79.6666 15.3795 79.6638 15.3637C79.6405 15.2249 79.5984 15.0899 79.5386 14.9625C79.5328 14.9502 79.5269 14.9377 79.5207 14.9254C79.4898 14.8631 79.4549 14.8029 79.416 14.7453C79.4134 14.7416 79.4107 14.7383 79.4082 14.7346C79.3711 14.6817 79.3307 14.6312 79.2873 14.5834C79.2767 14.5717 79.2664 14.5598 79.2554 14.5482C79.2089 14.4992 79.1593 14.4532 79.107 14.4103C79.0988 14.4039 79.09 14.398 79.0818 14.3908C79.0319 14.3523 78.9797 14.3169 78.9256 14.2846C78.915 14.2783 78.906 14.2717 78.8945 14.265C78.8323 14.2298 78.7678 14.1988 78.7013 14.1725C78.6976 14.1711 78.6943 14.1687 78.6906 14.1674L50.5656 3.22987C50.2013 3.08817 49.7971 3.08817 49.4328 3.22987L35.3703 8.69862L36.5031 11.6111L50 6.36405L69.7961 14.0625H52.7021C52.3582 13.4667 51.8272 13.0011 51.1917 12.7379C50.5561 12.4746 49.8515 12.4284 49.187 12.6065C48.5225 12.7845 47.9353 13.1768 47.5166 13.7226C47.0978 14.2684 46.8708 14.9371 46.8708 15.625C46.8708 16.3129 47.0978 16.9816 47.5166 17.5274C47.9353 18.0731 48.5225 18.4655 49.187 18.6435C49.8515 18.8216 50.5561 18.7754 51.1917 18.5121C51.8272 18.2489 52.3582 17.7832 52.7021 17.1875H69.7961L50 24.8859L26.1859 15.625L33.3789 12.8279L32.2461 9.91542L21.3086 14.1687C21.0151 14.2829 20.763 14.4829 20.5853 14.7428C20.4075 15.0027 20.3124 15.3102 20.3124 15.625C20.3124 15.9398 20.4075 16.2473 20.5853 16.5072C20.763 16.767 21.0151 16.9671 21.3086 17.0812L31.25 20.9473V40.625C31.25 41.0394 31.4146 41.4368 31.7076 41.7298C32.0006 42.0229 32.3981 42.1875 32.8125 42.1875C37.707 42.193 42.5338 43.3325 46.914 45.5166L49.3008 46.7099C49.5177 46.8184 49.757 46.8749 49.9996 46.8749C50.2422 46.8749 50.4814 46.8184 50.6984 46.7099L53.0853 45.5166C57.326 43.4034 61.9867 42.2681 66.7242 42.1943L75.1927 47.8398L78.0035 59.0834L72.6013 67.1875H70.3125V55.6338C70.3145 53.6432 69.8241 51.6831 68.8848 49.928C67.9456 48.173 66.5867 46.6776 64.9293 45.5752L63.1957 48.1752C64.4248 48.9926 65.4325 50.1014 66.129 51.4028C66.8255 52.7042 67.1891 54.1577 67.1875 55.6338V82.8125H70.3125V70.3125ZM65.625 39.0984C60.7777 39.3224 56.0307 40.5564 51.6881 42.7215L50 43.5656L48.3121 42.7215C43.9694 40.5564 39.2223 39.3224 34.375 39.0984V22.1625L49.4336 28.0187C49.7979 28.1604 50.2021 28.1604 50.5664 28.0187L65.625 22.1625V39.0984ZM42.1875 56.25C42.1875 56.8681 42.0042 57.4722 41.6608 57.9861C41.3174 58.5001 40.8294 58.9006 40.2584 59.1371C39.6873 59.3736 39.059 59.4355 38.4528 59.3149C37.8466 59.1944 37.2898 58.8967 36.8528 58.4597C36.4157 58.0227 36.1181 57.4658 35.9975 56.8597C35.8769 56.2535 35.9388 55.6251 36.1753 55.0541C36.4119 54.4831 36.8124 53.995 37.3263 53.6516C37.8402 53.3083 38.4444 53.125 39.0625 53.125C39.891 53.126 40.6853 53.4555 41.2711 54.0414C41.8569 54.6272 42.1865 55.4215 42.1875 56.25ZM57.8125 56.25C57.8125 55.6319 57.9957 55.0277 58.3391 54.5138C58.6825 53.9999 59.1706 53.5994 59.7416 53.3629C60.3126 53.1263 60.9409 53.0645 61.5471 53.185C62.1533 53.3056 62.7101 53.6032 63.1472 54.0403C63.5842 54.4773 63.8818 55.0341 64.0024 55.6403C64.123 56.2465 64.0611 56.8749 63.8246 57.4459C63.5881 58.0169 63.1875 58.505 62.6736 58.8483C62.1597 59.1917 61.5555 59.375 60.9375 59.375C60.109 59.374 59.3147 59.0445 58.7288 58.4586C58.143 57.8728 57.8135 57.0785 57.8125 56.25ZM43.75 78.125H42.9252C42.054 78.1279 41.1994 77.8867 40.4584 77.4287C39.7173 76.9707 39.1195 76.3141 38.7326 75.5336L37.3349 72.7387L34.54 74.1363L35.9375 76.9314C36.5824 78.2322 37.5789 79.3263 38.814 80.0896C40.049 80.8529 41.4733 81.2549 42.9252 81.25H43.75C44.9633 81.25 46.16 80.9671 47.2449 80.4237C48.3298 79.8804 49.2731 79.0917 50 78.1201C50.7268 79.0917 51.6701 79.8804 52.755 80.4237C53.84 80.9671 55.0366 81.25 56.25 81.25H57.9953C59.6353 81.2515 61.2342 80.7362 62.5647 79.7772C63.8952 78.8182 64.8896 77.4644 65.4068 75.908L65.5447 75.4941L62.5802 74.5059L62.4422 74.9199C62.1318 75.8537 61.5351 76.666 60.7368 77.2413C59.9386 77.8167 58.9793 78.1259 57.9953 78.125H56.25C55.0072 78.1236 53.8157 77.6293 52.9369 76.7505C52.0582 75.8717 51.5639 74.6803 51.5625 73.4375V70.3125C52.8057 70.3125 53.998 69.8186 54.877 68.9396C55.7561 68.0605 56.25 66.8682 56.25 65.625C56.25 64.3818 55.7561 63.1895 54.877 62.3104C53.998 61.4314 52.8057 60.9375 51.5625 60.9375H48.4375C47.1943 60.9375 46.002 61.4314 45.1229 62.3104C44.2438 63.1895 43.75 64.3818 43.75 65.625C43.75 66.8682 44.2438 68.0605 45.1229 68.9396C46.002 69.8186 47.1943 70.3125 48.4375 70.3125V73.4375C48.4361 74.6803 47.9418 75.8717 47.063 76.7505C46.1842 77.6293 44.9927 78.1236 43.75 78.125V78.125ZM46.875 65.625C46.8754 65.2107 47.0402 64.8136 47.3331 64.5206C47.6261 64.2277 48.0232 64.063 48.4375 64.0625H51.5625C51.9769 64.0625 52.3743 64.2271 52.6673 64.5201C52.9604 64.8132 53.125 65.2106 53.125 65.625C53.125 66.0394 52.9604 66.4368 52.6673 66.7298C52.3743 67.0229 51.9769 67.1875 51.5625 67.1875H48.4375C48.0232 67.187 47.6261 67.0223 47.3331 66.7293C47.0402 66.4364 46.8754 66.0392 46.875 65.625V65.625ZM37.5 26.5625H40.625V35.9375H37.5V26.5625ZM96.875 32.8125H93.75V29.6875H96.875V32.8125ZM90.625 32.8125H82.8125V29.6875H90.625V32.8125ZM96.0082 11.2L97.7418 13.8L94.6168 15.8834L92.8832 13.2834L96.0082 11.2ZM91.4918 17.9666L83.6793 23.175L81.9457 20.575L89.7582 15.3666L91.4918 17.9666ZM94.6168 46.6166L97.7418 48.7L96.0082 51.3L92.8832 49.2166L94.6168 46.6166ZM81.9457 41.925L83.6793 39.325L91.4918 44.5334L89.7582 47.1334L81.9457 41.925ZM3.12498 29.6875H6.24998V32.8125H3.12498V29.6875ZM17.1875 32.8125H9.37497V29.6875H17.1875V32.8125ZM5.38318 15.8834L2.25818 13.8L3.99177 11.2L7.11677 13.2834L5.38318 15.8834ZM18.0543 20.575L16.3207 23.175L8.50818 17.9666L10.2418 15.3666L18.0543 20.575ZM3.99177 51.3L2.25818 48.7L5.38318 46.6166L7.11677 49.2166L3.99177 51.3ZM8.50818 44.5334L16.3207 39.325L18.0543 41.925L10.2418 47.1334L8.50818 44.5334ZM70.3125 95.3125V87.5C70.3125 87.0856 70.1478 86.6882 69.8548 86.3951C69.5618 86.1021 69.1644 85.9375 68.75 85.9375H32.8125V55.6338C32.8108 54.1577 33.1744 52.7041 33.8709 51.4027C34.5674 50.1012 35.5752 48.9924 36.8043 48.175L35.0707 45.575C33.4132 46.6774 32.0543 48.1729 31.1151 49.9279C30.1758 51.683 29.6854 53.6432 29.6875 55.6338V67.1875H27.3986L21.9961 59.0834L24.8068 47.8398L28.9918 45.05L27.2582 42.45L22.5707 45.575C22.2473 45.7906 22.0159 46.119 21.9217 46.4961L18.7967 58.9961C18.7437 59.2072 18.7355 59.4271 18.7725 59.6416C18.8095 59.8561 18.8909 60.0606 19.0115 60.2418L25.2615 69.6168C25.4043 69.8309 25.5977 70.0065 25.8247 70.1279C26.0517 70.2492 26.3051 70.3126 26.5625 70.3125H29.6875V95.3125C29.6875 95.7269 29.8521 96.1243 30.1451 96.4173C30.4381 96.7104 30.8356 96.875 31.25 96.875H68.75C69.1644 96.875 69.5618 96.7104 69.8548 96.4173C70.1478 96.1243 70.3125 95.7269 70.3125 95.3125ZM67.1875 93.75H32.8125V89.0625H67.1875V93.75Z" fill="url(#paint0_linear)"/>
<defs>
<linearGradient id="paint0_linear" x1="50" y1="3.1236" x2="50" y2="96.875" gradientUnits="userSpaceOnUse">
<stop stop-color="#EE83EF"/>
<stop offset="1" stop-color="#41DFD0"/>
</linearGradient>
</defs>
</svg>
