<svg width="100" height="100" viewBox="0 0 100 100" fill="none" xmlns="http://www.w3.org/2000/svg">
<g clip-path="url(#clip0)">
<path d="M53.8799 58.9801C52.8547 58.9801 51.777 58.7057 50.7192 58.1479C50.0844 57.8108 49.9098 57.8108 49.2795 58.1454C46.6987 59.5065 43.9989 59.1807 42.2289 57.2975C40.6608 55.6309 40.0358 53.1745 40.5989 50.888C40.9522 49.4497 41.6852 48.278 42.7776 47.4065L46.7481 44.2413C48.8473 42.3239 51.152 42.3237 53.252 44.2417L57.217 47.4069C58.2998 48.2647 59.0358 49.4346 59.3987 50.8794C59.9633 53.1716 59.3362 55.628 57.7641 57.2985C56.7241 58.4106 55.3567 58.9801 53.8799 58.9801V58.9801ZM49.9961 53.993C50.8299 53.993 51.6639 54.2268 52.5459 54.695C53.1198 54.9977 54.1969 55.3938 54.9158 54.6259C55.5932 53.9057 55.8571 52.8331 55.608 51.8223C55.4555 51.2149 55.2014 50.7934 54.786 50.4645L50.7608 47.2512C50.7219 47.22 50.684 47.1876 50.6477 47.1534C50.0244 46.5723 49.976 46.5723 49.3526 47.1534C49.3158 47.1878 49.2778 47.2206 49.2383 47.252L45.2135 50.4608C44.7948 50.7948 44.5416 51.2145 44.3924 51.8214C44.1426 52.8362 44.4043 53.9089 45.075 54.6221C45.7994 55.3927 46.8762 54.9975 47.4532 54.6928C48.3315 54.2264 49.1637 53.993 49.9961 53.993Z" fill="url(#paint0_linear)"/>
<path d="M54.3045 39.836C53.226 39.836 52.3514 38.9614 52.3514 37.8829V35.7661C52.3514 34.6876 53.226 33.813 54.3045 33.813C55.383 33.813 56.2576 34.6876 56.2576 35.7661V37.8829C56.2576 38.9614 55.3832 39.836 54.3045 39.836Z" fill="url(#paint1_linear)"/>
<path d="M45.6901 39.836C44.6115 39.836 43.7369 38.9614 43.7369 37.8829V35.7661C43.7369 34.6876 44.6115 33.813 45.6901 33.813C46.7686 33.813 47.6432 34.6876 47.6432 35.7661V37.8829C47.6432 38.9614 46.7686 39.836 45.6901 39.836Z" fill="url(#paint2_linear)"/>
<path d="M39.4026 45.7937C38.7596 45.7937 38.1301 45.4767 37.7571 44.8955L36.9211 43.5931C36.3385 42.6853 36.6018 41.4771 37.5096 40.8945C38.4176 40.3117 39.6256 40.5754 40.2082 41.483L41.0442 42.7853C41.6268 43.6931 41.3635 44.9013 40.4557 45.4839C40.1293 45.6935 39.7637 45.7937 39.4026 45.7937V45.7937Z" fill="url(#paint3_linear)"/>
<path d="M60.5918 45.7938C60.2305 45.7938 59.8652 45.6938 59.5385 45.484C58.6309 44.9014 58.3674 43.6932 58.95 42.7854L59.7859 41.4831C60.3682 40.5756 61.5764 40.3112 62.4846 40.8946C63.3922 41.4772 63.6557 42.6854 63.073 43.5932L62.2371 44.8956C61.8645 45.4766 61.2348 45.7938 60.5918 45.7938V45.7938Z" fill="url(#paint4_linear)"/>
<path d="M91.8904 80.8123C90.9035 80.8123 89.9363 80.9898 89.027 81.3336C87.1801 79.1828 84.4604 77.9029 81.5707 77.9029C81.133 77.9029 80.7016 77.933 80.2762 77.9885L83.7654 55.3846L87.0648 58.6873C88.3924 60.0162 90.1629 60.748 92.0506 60.7482C93.9383 60.7482 95.709 60.0162 97.0365 58.6873C99.7842 55.9371 99.7842 51.4619 97.0365 48.7113L80.4109 32.0697C79.6486 31.3066 78.4121 31.3061 77.6488 32.0684C76.8855 32.8307 76.8852 34.0672 77.6475 34.8305L94.2729 51.4721C95.4998 52.7002 95.4998 54.6986 94.273 55.9268C93.6832 56.5168 92.8939 56.8422 92.0504 56.8422C91.207 56.842 90.418 56.517 89.8281 55.9268L51.3789 17.4393C51.0127 17.0725 50.5156 16.8664 49.9973 16.8664C49.4789 16.8664 48.9818 17.0725 48.6156 17.4393L10.1637 55.9283C9.57773 56.5168 8.7918 56.841 7.95059 56.8416C7.9498 56.8416 7.94902 56.8416 7.94805 56.8416C7.10508 56.8416 6.31621 56.5166 5.72637 55.9264C4.49961 54.6982 4.49961 52.6998 5.72637 51.4717L49.9971 7.15801L65.241 22.4166C66.0033 23.1797 67.2398 23.1803 68.0031 22.418C68.7664 21.6557 68.7668 20.4191 68.0045 19.6559L51.3789 3.01426C51.0127 2.64746 50.5156 2.44141 49.9973 2.44141C49.4789 2.44141 48.9818 2.64746 48.6156 3.01426L2.96289 48.7109C0.21543 51.4615 0.21543 55.9367 2.96309 58.6869C4.29082 60.016 6.06094 60.7479 7.94805 60.7477H7.95332C9.83945 60.7463 11.6074 60.0139 12.9291 58.6869L16.2332 55.3797L19.7207 77.9908C19.2918 77.9338 18.8586 77.9027 18.4236 77.9027C15.5391 77.9027 12.8205 79.1826 10.9707 81.3328C10.0633 80.9897 9.09707 80.8123 8.10957 80.8123C3.63789 80.8123 0 84.4527 0 88.9277C0 93.5256 3.78945 97.5586 8.10957 97.5586H91.8906C96.2105 97.5586 100 93.5256 100 88.9277C100 84.4527 96.3621 80.8123 91.8904 80.8123V80.8123ZM49.9971 21.5832L80.3422 51.9576L73.9057 93.6523H63.034V76.7414C63.034 69.55 57.1857 63.6994 49.9971 63.6994C42.8117 63.6994 36.9658 69.55 36.9658 76.7414V93.6523H26.0889L19.6568 51.9527L49.9971 21.5832ZM40.8723 93.1426V76.7414C40.8723 71.7039 44.9656 67.6057 49.9973 67.6057C55.0318 67.6057 59.1279 71.7039 59.1279 76.7414V93.1426H40.8723ZM3.90625 88.9277C3.90625 86.6068 5.7918 84.7186 8.10957 84.7186C8.95918 84.7186 9.77754 84.9719 10.4762 85.4512C10.9266 85.7598 11.4857 85.8654 12.0178 85.7441C12.5502 85.6219 13.0068 85.2826 13.2773 84.8082C14.3328 82.9582 16.3049 81.8092 18.4238 81.8092C19.0877 81.8092 19.7434 81.9225 20.3604 82.1357L22.1367 93.6525H8.10957C5.90977 93.6523 3.90625 91.4004 3.90625 88.9277V88.9277ZM91.8904 93.6523H77.8582L79.6363 82.1342C80.2529 81.9199 80.9 81.8092 81.5707 81.8092C83.6939 81.8092 85.6652 82.9572 86.7154 84.8055C86.985 85.2801 87.4408 85.6199 87.9727 85.7434C88.5045 85.8666 89.0633 85.7617 89.5143 85.4543C90.2195 84.973 91.0412 84.7188 91.8906 84.7188C94.2082 84.7188 96.0939 86.607 96.0939 88.9279C96.0938 91.4004 94.0902 93.6523 91.8904 93.6523Z" fill="url(#paint5_linear)"/>
<path d="M72.8299 29.2016C72.5377 29.2016 72.2408 29.1354 71.9613 28.9955L71.9502 28.9901C70.9854 28.5076 70.5944 27.3344 71.0766 26.3697C71.559 25.4047 72.732 25.0139 73.6969 25.4961C74.6617 25.9783 75.0584 27.1545 74.576 28.1193C74.2334 28.8045 73.5453 29.2016 72.8299 29.2016V29.2016Z" fill="url(#paint6_linear)"/>
</g>
<defs>
<linearGradient id="paint0_linear" x1="49.999" y1="42.8032" x2="49.999" y2="58.9801" gradientUnits="userSpaceOnUse">
<stop stop-color="#EE83EF"/>
<stop offset="1" stop-color="#41DFD0"/>
</linearGradient>
<linearGradient id="paint1_linear" x1="54.3045" y1="33.813" x2="54.3045" y2="39.836" gradientUnits="userSpaceOnUse">
<stop stop-color="#EE83EF"/>
<stop offset="1" stop-color="#41DFD0"/>
</linearGradient>
<linearGradient id="paint2_linear" x1="45.6901" y1="33.813" x2="45.6901" y2="39.836" gradientUnits="userSpaceOnUse">
<stop stop-color="#EE83EF"/>
<stop offset="1" stop-color="#41DFD0"/>
</linearGradient>
<linearGradient id="paint3_linear" x1="38.9826" y1="40.5847" x2="38.9826" y2="45.7937" gradientUnits="userSpaceOnUse">
<stop stop-color="#EE83EF"/>
<stop offset="1" stop-color="#41DFD0"/>
</linearGradient>
<linearGradient id="paint4_linear" x1="61.0115" y1="40.5846" x2="61.0115" y2="45.7938" gradientUnits="userSpaceOnUse">
<stop stop-color="#EE83EF"/>
<stop offset="1" stop-color="#41DFD0"/>
</linearGradient>
<linearGradient id="paint5_linear" x1="50.0001" y1="2.44141" x2="50.0001" y2="97.5586" gradientUnits="userSpaceOnUse">
<stop stop-color="#EE83EF"/>
<stop offset="1" stop-color="#41DFD0"/>
</linearGradient>
<linearGradient id="paint6_linear" x1="72.8258" y1="25.2896" x2="72.8258" y2="29.2016" gradientUnits="userSpaceOnUse">
<stop stop-color="#EE83EF"/>
<stop offset="1" stop-color="#41DFD0"/>
</linearGradient>
<clipPath id="clip0">
<rect width="100" height="100" fill="white"/>
</clipPath>
</defs>
</svg>
