<svg width="100" height="100" viewBox="0 0 512 512" fill="none" xmlns="http://www.w3.org/2000/svg">
<path d="M489.924 111.231C475.667 96.974 456.712 89.123 436.547 89.123C432.863 89.123 429.216 89.385 425.617 89.907C429.059 66.638 421.465 42.773 404.271 25.579C390.012 11.32 371.054 3.46704 350.888 3.46704C330.722 3.46704 311.764 11.32 297.505 25.578C284.139 38.943 276.315 56.696 275.471 75.566C274.771 91.229 278.913 106.554 287.241 119.579L120.246 286.576C107.345 277.05 91.771 271.893 75.49 271.893C55.326 271.893 36.369 279.745 22.112 294.003C7.854 308.262 0 327.22 0 347.386C0 367.552 7.854 386.51 22.112 400.769C36.369 415.026 55.324 422.877 75.488 422.877C79.172 422.877 82.819 422.615 86.418 422.093C82.975 445.362 90.57 469.227 107.764 486.421C122.023 500.68 140.98 508.532 161.147 508.532C181.312 508.532 200.271 500.68 214.53 486.421C228.597 472.354 236.448 453.653 236.637 433.764C236.794 417.213 231.636 401.386 221.958 388.286L387.892 222.352C401.488 233.846 418.534 240.108 436.541 240.108C456.706 240.108 475.665 232.255 489.923 217.997C519.358 188.56 519.358 140.666 489.924 111.231ZM475.781 203.853C465.299 214.334 451.364 220.106 436.541 220.106C421.718 220.106 407.782 214.334 397.3 203.853C396.605 203.157 395.903 202.416 395.216 201.649C393.383 199.605 390.789 198.405 388.044 198.331C385.288 198.258 382.644 199.314 380.701 201.256L201.331 380.625C197.481 384.474 197.418 390.696 201.189 394.623C221.947 416.24 221.586 451.077 200.386 472.278C189.904 482.759 175.968 488.531 161.146 488.531C146.323 488.531 132.388 482.759 121.907 472.278C105.948 456.32 101.238 432.541 109.905 411.701C111.46 407.962 110.606 403.653 107.743 400.789C105.83 398.875 103.272 397.86 100.67 397.86C99.377 397.86 98.073 398.111 96.832 398.627C90.052 401.446 82.871 402.876 75.489 402.876C60.668 402.876 46.735 397.105 36.256 386.626C25.773 376.143 20.001 362.208 20.001 347.385C20.001 332.563 25.773 318.627 36.255 308.145C46.735 297.664 60.669 291.893 75.49 291.893C89.89 291.893 103.534 297.379 113.909 307.342C117.835 311.111 124.057 311.05 127.907 307.199L307.42 127.687C311.066 124.041 311.342 118.221 308.058 114.246C289.763 92.102 291.306 60.062 311.648 39.72C322.13 29.238 336.066 23.466 350.888 23.466C365.711 23.466 379.646 29.238 390.128 39.72C406.086 55.679 410.796 79.457 402.129 100.298C400.574 104.037 401.428 108.346 404.292 111.21C407.155 114.074 411.464 114.927 415.204 113.373C421.984 110.553 429.166 109.124 436.548 109.124C451.369 109.124 465.302 114.895 475.782 125.374C497.417 147.011 497.417 182.217 475.781 203.853Z" fill="url(#paint0_linear)"/>
<path d="M219.28 251.186C215.375 247.281 209.042 247.281 205.137 251.186L158.498 297.824C154.593 301.729 154.593 308.061 158.498 311.967C160.451 313.92 163.009 314.896 165.569 314.896C168.128 314.896 170.688 313.919 172.64 311.967L219.279 265.329C223.185 261.424 223.185 255.093 219.28 251.186Z" fill="url(#paint1_linear)"/>
<path d="M240.528 229.938C236.623 226.033 230.29 226.033 226.385 229.938L226.156 230.168C222.251 234.073 222.251 240.406 226.156 244.311C228.109 246.264 230.668 247.24 233.227 247.24C235.786 247.24 238.345 246.263 240.298 244.311L240.527 244.081C244.433 240.176 244.433 233.843 240.528 229.938Z" fill="url(#paint2_linear)"/>
<defs>
<linearGradient id="paint0_linear" x1="256" y1="3.46704" x2="256" y2="508.532" gradientUnits="userSpaceOnUse">
<stop stop-color="#EE83EF"/>
<stop offset="1" stop-color="#41DFD0"/>
</linearGradient>
<linearGradient id="paint1_linear" x1="188.889" y1="248.257" x2="188.889" y2="314.896" gradientUnits="userSpaceOnUse">
<stop stop-color="#EE83EF"/>
<stop offset="1" stop-color="#41DFD0"/>
</linearGradient>
<linearGradient id="paint2_linear" x1="233.342" y1="227.009" x2="233.342" y2="247.24" gradientUnits="userSpaceOnUse">
<stop stop-color="#EE83EF"/>
<stop offset="1" stop-color="#41DFD0"/>
</linearGradient>
</defs>
</svg>
