<svg width="100" height="100" viewBox="0 0 100 100" fill="none" xmlns="http://www.w3.org/2000/svg">
<path d="M96.7343 49.3594C96.4843 48.7969 95.9375 48.4375 95.3125 48.4375H76.5625V27.3438C76.5625 26.9063 76.375 26.4844 76.0468 26.1875L51.0468 3.53129C50.5937 3.10941 49.9375 3.01566 49.3593 3.26566C48.7968 3.51566 48.4375 4.06254 48.4375 4.68754V23.4375H27.3437C26.9062 23.4375 26.4844 23.625 26.1875 23.9532L3.53123 48.9532C3.10935 49.4063 3.0156 50.0625 3.2656 50.6407C3.5156 51.2032 4.06248 51.5625 4.68748 51.5625H23.4375V72.6563C23.4375 73.0938 23.625 73.5157 23.9531 73.8125L48.9531 96.4688C49.25 96.7344 49.625 96.875 50 96.875C50.2187 96.875 50.4375 96.8282 50.6406 96.7344C51.2031 96.4844 51.5625 95.9375 51.5625 95.3125V76.5625H72.6562C73.0937 76.5625 73.5156 76.375 73.8125 76.0469L96.4687 51.0469C96.8906 50.5938 96.9843 49.9375 96.7343 49.3594ZM51.5625 8.21879L72.4218 27.125L54.2812 45.2813C52.5937 43.5157 51.5625 41.1563 51.5625 38.5469V8.21879ZM73.4375 30.5313V48.4375H61.6562C59.8906 48.4375 58.2187 47.9844 56.7812 47.2032L73.4375 30.5313ZM48.4375 26.5625V38.3438C48.4375 40.1094 47.9843 41.7813 47.2031 43.2188L30.5312 26.5625H48.4375ZM8.21873 48.4375L27.125 27.5782L45.2812 45.7188C43.5156 47.4063 41.1562 48.4375 38.5468 48.4375H8.21873ZM26.5625 51.5625H38.3437C40.1094 51.5625 41.7812 52.0157 43.2187 52.7969L26.5625 69.4688V51.5625ZM48.4375 91.7813L27.5781 72.875L45.7187 54.7188C47.4062 56.4844 48.4375 58.8438 48.4375 61.4532V91.7813V91.7813ZM50.0156 55.3594C48.7968 53.0938 46.9218 51.2344 44.6406 50.0157C46.9062 48.7969 48.7656 46.9219 49.9843 44.6407C51.2031 46.9063 53.0781 48.7657 55.3594 49.9844C53.0937 51.2032 51.2343 53.0782 50.0156 55.3594ZM51.5625 73.4375V61.6563C51.5625 59.8907 52.0156 58.2188 52.7968 56.7813L69.4687 73.4375H51.5625ZM72.875 72.4219L54.7187 54.2813C56.4844 52.5938 58.8437 51.5625 61.4531 51.5625H91.7812L72.875 72.4219Z" fill="url(#paint0_linear)"/>
<path d="M69.4687 73.4375H51.5625V61.6562C51.5625 59.8906 52.0156 58.2187 52.7969 56.7812L69.4687 73.4375Z" fill="#41DFD0"/>
<path d="M73.4375 30.5312V48.4375H61.6562C59.8906 48.4375 58.2188 47.9844 56.7812 47.2031L73.4375 30.5312Z" fill="#EE83EF"/>
<path d="M43.2187 52.7969L26.5625 69.4687V51.5625H38.3438C40.1094 51.5625 41.7812 52.0156 43.2187 52.7969Z" fill="#41DFD0"/>
<path d="M48.4375 26.5625V38.3438C48.4375 40.1094 47.9844 41.7812 47.2031 43.2187L30.5312 26.5625H48.4375Z" fill="#EE83EF"/>
<defs>
<linearGradient id="paint0_linear" x1="50" y1="3.12816" x2="50" y2="96.875" gradientUnits="userSpaceOnUse">
<stop stop-color="#EE83EF"/>
<stop offset="1" stop-color="#41DFD0"/>
</linearGradient>
</defs>
</svg>
