<svg width="100" height="100" viewBox="0 0 100 100" fill="none" xmlns="http://www.w3.org/2000/svg">
<path d="M85.3552 14.6448C75.9116 5.2008 63.3556 0 50 0C36.6444 0 24.0884 5.2008 14.6448 14.6448C5.2008 24.0884 0 36.6444 0 50C0 63.3556 5.2008 75.9116 14.6448 85.3552C24.0884 94.7992 36.6444 100 50 100C63.3556 100 75.9116 94.7992 85.3552 85.3552C94.7992 75.9116 100 63.3556 100 50C100 36.6444 94.7992 24.0884 85.3552 14.6448ZM50 96.0159C24.6267 96.0159 3.98406 75.3733 3.98406 50C3.98406 24.6267 24.6267 3.98406 50 3.98406C75.3733 3.98406 96.0159 24.6267 96.0159 50C96.0159 75.3733 75.3733 96.0159 50 96.0159Z" fill="#41DFD0"/>
<path d="M58.8514 49.6016L72.7275 35.7257C75.2226 33.2303 75.2226 29.1703 72.7275 26.6751C71.5186 25.4663 69.9114 24.8006 68.202 24.8006C66.4927 24.8006 64.8853 25.4665 63.6767 26.6751L49.8008 40.551L35.9249 26.6753C34.7162 25.4665 33.109 24.8006 31.3996 24.8006C29.6903 24.8006 28.0829 25.4663 26.8741 26.6751C24.3791 29.1705 24.3791 33.2305 26.8741 35.7257L40.7502 49.6016L26.8741 63.4775C24.3789 65.9729 24.3789 70.0331 26.8743 72.5285C28.0833 73.7369 29.6903 74.4024 31.3996 74.4024C33.1092 74.4024 34.7164 73.7369 35.9249 72.5283L49.8008 58.6522L63.6767 72.5283C64.8855 73.7369 66.4925 74.4024 68.202 74.4024C69.9114 74.4024 71.5184 73.7369 72.7275 72.5283C75.2228 70.0329 75.2228 65.9727 72.7275 63.4775L58.8514 49.6016ZM69.9104 69.7108C69.454 70.1669 68.8474 70.4183 68.202 70.4183C67.5568 70.4183 66.95 70.1671 66.4941 69.711L51.2094 54.4263C50.8357 54.0528 50.3291 53.8428 49.8008 53.8428C49.2725 53.8428 48.766 54.0528 48.3923 54.4263L33.1076 69.711C32.6516 70.1671 32.0449 70.4183 31.3996 70.4183C30.7542 70.4183 30.1476 70.1669 29.6915 69.711C28.7494 68.7691 28.7494 67.2367 29.6915 66.2948L44.9761 51.0102C45.3496 50.6365 45.5596 50.1299 45.5596 49.6016C45.5596 49.0733 45.3496 48.5667 44.9761 48.193L29.6915 32.9084C28.7494 31.9667 28.7494 30.4343 29.6915 29.4924C30.1476 29.0361 30.7544 28.7847 31.3996 28.7847C32.0449 28.7847 32.6514 29.0361 33.1076 29.4924L48.3921 44.7769C49.1704 45.5546 50.4313 45.5546 51.2094 44.7769L66.4941 29.4922C66.9502 29.0361 67.5568 28.7847 68.202 28.7847C68.8472 28.7847 69.454 29.0361 69.9102 29.4924C70.8522 30.4341 70.8522 31.9665 69.9102 32.9084L54.6255 48.193C54.252 48.5667 54.0421 49.0733 54.0421 49.6016C54.0421 50.1299 54.252 50.6365 54.6255 51.0102L69.9102 66.2948C70.8522 67.2365 70.8522 68.7689 69.9104 69.7108Z" fill="#41DFD0"/>
<path d="M33.648 13.386C33.1492 12.4051 31.9496 12.0143 30.9695 12.5135C24.159 15.9775 18.4128 21.2364 14.3516 27.7219C10.1755 34.3908 7.96814 42.0942 7.96814 50C7.96814 51.1 8.86017 51.992 9.96017 51.992C11.0602 51.992 11.9522 51.1 11.9522 50C11.9522 35.601 19.9313 22.5976 32.7755 16.0645C33.7562 15.5657 34.1468 14.3665 33.648 13.386Z" fill="#41DFD0"/>
<path d="M41.8307 12.7863C41.9647 12.7863 42.1008 12.7725 42.237 12.7444C44.7733 12.2187 47.3851 11.9522 50 11.9522C51.1 11.9522 51.992 11.0602 51.992 9.96017C51.992 8.86017 51.1 7.96814 50 7.96814C47.1141 7.96814 44.2303 8.26256 41.4287 8.84324C40.3512 9.06655 39.659 10.1207 39.8823 11.198C40.0773 12.1391 40.9062 12.7863 41.8307 12.7863Z" fill="#41DFD0"/>
</svg>
