<svg width="40" height="40" viewBox="0 0 100 100" fill="none" xmlns="http://www.w3.org/2000/svg">
<path d="M50.0088 100C49.874 100 49.7406 99.9996 49.6059 99.9986C36.2748 99.8957 23.7951 94.6604 14.4658 85.2564C5.1375 75.8529 0 63.3322 0 50C0 22.4334 22.4271 0.00351562 49.9936 0C49.9953 0 49.9984 0 50.0002 0C63.2318 0 75.6978 5.10273 85.1055 14.3697C94.5154 23.6393 99.8031 36.0309 99.9947 49.2613C100.114 57.4844 98.2049 65.6252 94.466 72.8828L98.5725 88.2084C98.9736 89.7053 98.5422 91.3158 97.4463 92.4115C96.3504 93.5072 94.7396 93.9385 93.2432 93.5377L81.7553 90.4594C80.2004 90.0428 79.2775 88.4441 79.6941 86.8891C80.1107 85.334 81.7094 84.4107 83.2645 84.8277L92.2783 87.2432L88.5381 73.284C88.3441 72.5605 88.4363 71.79 88.7951 71.1326C92.4186 64.4963 94.2754 56.9623 94.1652 49.3449C93.8184 25.351 74.0051 5.83008 50 5.83008C49.9971 5.83008 49.9975 5.83008 49.9945 5.83008C25.6422 5.8332 5.83008 25.6477 5.83008 50C5.83008 74.168 25.4879 93.9818 49.6508 94.1688C56.6174 94.2197 63.298 92.6996 69.4988 89.6422C70.9426 88.9309 72.6904 89.5236 73.4027 90.9676C74.1146 92.4117 73.5213 94.1592 72.0773 94.8715C65.1736 98.2752 57.7502 99.9996 50.0088 100Z" fill="url(#paint0_linear)"/>
<path d="M51.2506 73.9037C52.5789 73.9037 53.6559 72.8269 53.6559 71.4984V54.1029H59.6C60.8438 54.1029 61.8824 53.1547 61.9953 51.916L62.5565 45.7576C62.6848 44.3488 61.5758 43.134 60.1611 43.134H54.0781V37C54.0781 34.8615 55.5033 34.366 56.5047 34.366H60.2512C61.5795 34.366 62.6565 33.2893 62.6565 31.9607V27.3635C62.6565 26.0389 61.5856 24.9635 60.2609 24.9582L54.1836 24.9338C44.7799 24.9338 42.643 31.941 42.643 36.4289V43.1342H39.6098C38.2815 43.1342 37.2045 44.2109 37.2045 45.5394V51.6978C37.2045 53.0262 38.2813 54.1031 39.6098 54.1031H42.6871V72.024C42.6871 73.0623 43.5289 73.9043 44.5674 73.9043H51.2508V73.9037H51.2506Z" fill="url(#paint1_linear)"/>
<path d="M51.2506 76.8188H44.5672C41.9232 76.8188 39.7719 74.6678 39.7719 72.0234V57.0176H39.6096C36.6762 57.0176 34.2893 54.6307 34.2893 51.6973V45.5391C34.2893 42.6057 36.6762 40.2187 39.6096 40.2187H39.7273V36.4285C39.7273 29.7811 43.5131 22.0184 54.183 22.0184L60.2723 22.0428C63.194 22.0547 65.5709 24.4416 65.5709 27.3631V31.9603C65.5709 34.8937 63.184 37.2807 60.2506 37.2807H56.993V40.2187H60.1608C61.6522 40.2187 63.0842 40.8504 64.0897 41.9518C65.0953 43.0531 65.5943 44.5365 65.4592 46.0217L64.8977 52.1797C64.6463 54.9373 62.3686 57.0172 59.5996 57.0172H56.5703V71.4977C56.5709 74.4318 54.184 76.8188 51.2506 76.8188ZM45.6022 70.9887H50.7404V54.1029C50.7404 52.493 52.0455 51.1879 53.6555 51.1879H59.134L59.6024 46.0492H54.0777C52.4678 46.0492 51.1627 44.7441 51.1627 43.1342V37C51.1627 33.1875 53.9316 31.451 56.5043 31.451H59.7408V27.8713L54.1713 27.8488C46.6779 27.8488 45.5574 33.2244 45.5574 36.4289V43.1342C45.5574 44.7441 44.2523 46.0492 42.6424 46.0492H40.1193V51.1879H42.6869C44.2969 51.1879 45.602 52.493 45.602 54.1029V70.9887H45.6022Z" fill="url(#paint2_linear)"/>
<defs>
<linearGradient id="paint0_linear" x1="50" y1="0" x2="50" y2="100" gradientUnits="userSpaceOnUse">
<stop stop-color="#41DFD0"/>
<stop offset="1" stop-color="#41DFD0"/>
</linearGradient>
<linearGradient id="paint1_linear" x1="49.9305" y1="24.9338" x2="49.9305" y2="73.9043" gradientUnits="userSpaceOnUse">
<stop stop-color="#41DFD0"/>
<stop offset="1" stop-color="#41DFD0"/>
</linearGradient>
<linearGradient id="paint2_linear" x1="49.9301" y1="22.0184" x2="49.9301" y2="76.8188" gradientUnits="userSpaceOnUse">
<stop stop-color="#41DFD0"/>
<stop offset="1" stop-color="#41DFD0"/>
</linearGradient>
</defs>
</svg>
