<svg width="80" height="80" viewBox="0 0 80 80" fill="none" xmlns="http://www.w3.org/2000/svg">
<g id="Frame 1">
<path id="Vector" d="M62.8077 5.97259L6.04605 62.0447C2.39114 65.6553 1.72308 71.125 4.86345 74.2273C8.00041 77.3261 13.5375 76.6659 17.1922 73.0555L73.9539 16.9834C77.6086 13.373 78.277 7.90322 75.14 4.80435C71.9996 1.70213 66.4626 2.36208 62.8077 5.97259Z" fill="white" />
<path id="Vector_2" d="M73.9539 63.0166L17.1923 6.94443C13.5374 3.33392 8.00044 2.67385 4.85995 5.77619C1.72299 8.87505 2.39135 14.3449 6.0461 17.9552L62.8077 74.0274C66.4625 77.6377 71.9995 78.298 75.1365 75.1991C78.277 72.0968 77.6088 66.6271 73.9539 63.0166Z" fill="white" />
</g>
</svg>
