<svg width="100" height="100" viewBox="0 0 100 92" fill="none" xmlns="http://www.w3.org/2000/svg">
<path d="M74.1667 1.83335C70.6471 1.83727 67.1503 2.39636 63.805 3.49002C62.0215 1.45387 59.4722 0.250169 56.7667 0.166687C51.7478 0.43897 46.7829 1.33989 41.9883 2.84835C40.8695 3.17565 39.8324 3.73566 38.945 4.49169C34.7976 2.73301 30.3382 1.82887 25.8333 1.83335C11.3483 1.83335 0 15.8334 0 33.7C0 52.46 12.13 78.185 45.98 90.5434C46.0117 90.5584 46.045 90.5684 46.0767 90.58C47.1878 90.9867 48.3244 91.3756 49.4867 91.7467C49.6523 91.802 49.8254 91.8312 50 91.8334C50.1749 91.8337 50.3488 91.8061 50.515 91.7517C53.6619 90.7313 56.7538 89.5486 59.7783 88.2084C59.82 88.1934 59.8633 88.2 59.905 88.1817C59.9467 88.1633 59.9733 88.1284 60.0133 88.1084C89.3133 75 100 51.28 100 33.7C100 15.8334 88.6517 1.83335 74.1667 1.83335V1.83335ZM96.6667 33.7C96.4706 43.815 93.2545 53.6402 87.4317 61.9134C83.1133 52.3267 77.5983 43.6317 74.6117 40.655C72.4376 38.2386 69.6702 36.4318 66.5833 35.4134L65.8967 30.5984C68.7449 28.6219 70.3419 25.2917 70.1 21.8334C70.151 16.3776 68.7207 11.0103 65.9617 6.30335C68.6316 5.5499 71.3925 5.16742 74.1667 5.16669C86.7833 5.16669 96.6667 17.7 96.6667 33.7V33.7ZM3.33333 33.7C3.33333 17.7 13.2167 5.16669 25.8333 5.16669C29.561 5.17323 33.2552 5.87114 36.7283 7.22502L33.4767 12.0967C32.7861 13.1322 31.7363 13.8751 30.53 14.1817L20.8517 16.585C19.4202 16.9472 18.4008 18.2126 18.3517 19.6884C18.245 22.5217 18.6233 31.98 27.905 35.08C28.0753 35.1372 28.2537 35.1665 28.4333 35.1667C33.349 35.2232 38.2252 36.0522 42.8833 37.6234L42.4767 38.5C39.7969 43.6497 38.377 49.3616 38.3333 55.1667C38.4445 61.5454 40.8057 67.6796 45 72.4867V86.595C14.3867 74.5483 3.33333 50.9734 3.33333 33.7V33.7ZM21.6667 19.8184L25 18.985V21.8334H21.72C21.6633 21.1633 21.6455 20.4905 21.6667 19.8184ZM60.26 84.3184C60.0852 83.5016 59.9981 82.6686 60 81.8334C59.9131 77.6941 61.7796 73.7554 65.0383 71.2017C67.7997 69.278 71.3384 68.858 74.4733 70.0817C75.039 70.2698 75.6621 70.1419 76.1079 69.7461C76.5537 69.3503 76.7544 68.7468 76.6345 68.1628C76.5147 67.5788 76.0923 67.1032 75.5267 66.915C71.3732 65.3617 66.7211 65.9546 63.09 68.5C58.9679 71.6843 56.5877 76.6252 56.6667 81.8334C56.6602 83.1382 56.8283 84.4381 57.1667 85.6984C54.8867 86.6684 52.5 87.5817 49.9917 88.4134C49.425 88.2267 48.8817 88.0267 48.325 87.8317V71.8334C48.3253 71.3924 48.151 70.9693 47.84 70.6567C43.9993 66.3957 41.8096 60.9014 41.6667 55.1667C41.7087 49.8476 43.0231 44.6157 45.5 39.9084L45.9067 39.0267C46.2891 38.2115 46.3193 37.2748 45.99 36.4367C45.6491 35.5834 44.9723 34.9078 44.1183 34.5684C39.1676 32.8287 33.967 31.9049 28.72 31.8334C25.6422 30.7789 23.271 28.2914 22.365 25.1667H25C26.8409 25.1667 28.3333 23.6743 28.3333 21.8334V18.1667L31.3483 17.4184C33.3566 16.908 35.1043 15.6711 36.2533 13.9467L40.1483 8.11335C40.2792 7.91909 40.4234 7.7342 40.58 7.56002C41.1976 6.84636 42.0077 6.32562 42.9133 6.06002C47.411 4.65118 52.0626 3.7916 56.7667 3.50002C58.8612 3.67266 60.7744 4.75601 62 6.46335C65.208 10.937 66.8804 16.3295 66.7667 21.8334C66.7667 25.0234 65.63 27.1667 63.385 28.1867C61.0138 29.0921 58.383 29.037 56.0517 28.0334C55.4165 27.7812 54.9996 27.1668 55 26.4834V15.1667C55 14.2462 54.2538 13.5 53.3333 13.5C52.4129 13.5 51.6667 14.2462 51.6667 15.1667V26.4834C51.6742 28.5309 52.9218 30.3697 54.8217 31.1334C57.321 32.1522 60.0643 32.4153 62.7117 31.89L63.285 35.89C63.4727 37.2048 64.4292 38.2794 65.7133 38.6184C68.2335 39.499 70.4862 41.0103 72.2567 43.0084C74.845 45.5817 80.6733 54.565 85.1517 65.0084C78.4744 73.2963 69.9505 79.9069 60.2617 84.3117L60.26 84.3184Z" fill="url(#paint0_linear)"/>
<defs>
<linearGradient id="paint0_linear" x1="50" y1="0.166687" x2="50" y2="91.8334" gradientUnits="userSpaceOnUse">
<stop stop-color="#EE83EF"/>
<stop offset="1" stop-color="#41DFD0"/>
</linearGradient>
</defs>
</svg>
