<svg width="50" height="50" viewBox="0 0 100 100" fill="none" xmlns="http://www.w3.org/2000/svg">
<g filter="url(#filter0_i)">
<path d="M96.5771 41.7179L60.5808 5.59361C58.3632 3.37017 55.412 2.14575 52.2716 2.14575C47.4425 2.14575 43.2901 4.91568 41.4352 9.37448C39.5804 13.8333 40.543 18.7309 43.9458 22.1548L59.9562 38.2806H11.7194C5.25724 38.2806 0 43.538 0 49.9999C0 56.4619 5.25724 61.7193 11.7194 61.7193H59.9562L43.9474 77.8437C40.5432 81.2689 39.5805 86.1664 41.4354 90.6252C43.2901 95.084 47.4425 97.8541 52.2718 97.8541C55.4122 97.8541 58.3632 96.6299 60.5831 94.4043L82.9258 71.9744C84.4482 70.4461 84.4433 67.9724 82.9148 66.45C81.3865 64.9277 78.913 64.9322 77.3904 66.4609L55.0499 88.8889C54.3191 89.6213 53.3067 90.0414 52.2718 90.0414C49.8429 90.0414 48.8847 88.1916 48.6489 87.6246C48.413 87.0576 47.7769 85.074 49.4903 83.35L72.1117 60.565C73.223 59.4459 73.5521 57.7675 72.9458 56.3115C72.3394 54.8552 70.9169 53.9064 69.3394 53.9064H11.7194C9.56525 53.9064 7.81291 52.1541 7.81291 49.9999C7.81291 47.8458 9.56525 46.0935 11.7194 46.0935H69.3394C70.9167 46.0935 72.3396 45.1449 72.9458 43.6884C73.5519 42.2322 73.2228 40.554 72.1117 39.4347L49.4888 16.6491C47.7767 14.9264 48.413 12.9428 48.6489 12.3758C48.8847 11.8089 49.8429 9.95905 52.2718 9.95905C53.3066 9.95905 54.3191 10.3792 55.0483 11.1102L91.0478 47.2374C92.5711 48.7605 92.5711 51.2388 91.0478 52.7619C89.5224 54.2873 89.5224 56.7609 91.0478 58.2865C92.5732 59.8121 95.0469 59.8121 96.5725 58.2865C101.142 53.7173 101.142 46.2824 96.5771 41.7179Z" fill="url(#paint0_linear)"/>
</g>
<defs>
<filter id="filter0_i" x="0" y="0" width="100" height="102" filterUnits="userSpaceOnUse" color-interpolation-filters="sRGB">
<feFlood flood-opacity="0" result="BackgroundImageFix"/>
<feBlend mode="normal" in="SourceGraphic" in2="BackgroundImageFix" result="shape"/>
<feColorMatrix in="SourceAlpha" type="matrix" values="0 0 0 0 0 0 0 0 0 0 0 0 0 0 0 0 0 0 127 0" result="hardAlpha"/>
<feOffset dy="2"/>
<feGaussianBlur stdDeviation="1"/>
<feComposite in2="hardAlpha" operator="arithmetic" k2="-1" k3="1"/>
<feColorMatrix type="matrix" values="0 0 0 0 0 0 0 0 0 0 0 0 0 0 0 0 0 0 0.25 0"/>
<feBlend mode="normal" in2="shape" result="effect1_innerShadow"/>
</filter>
<linearGradient id="paint0_linear" x1="50" y1="2.14575" x2="50" y2="97.8541" gradientUnits="userSpaceOnUse">
<stop stop-color="#EE83EF"/>
<stop offset="1" stop-color="#41DFD0"/>
</linearGradient>
</defs>
</svg>
