<svg width="50" height="50" viewBox="0 0 100 100" fill="none" xmlns="http://www.w3.org/2000/svg">
<g clip-path="url(#clip0)" filter="url(#filter0_i)">
<path d="M88.2804 38.2807H40.0437L56.0524 22.1565C59.4567 18.7313 60.4192 13.8336 58.5644 9.37483C56.7097 4.91604 52.5575 2.14612 47.728 2.14612C44.5876 2.14612 41.6366 3.37034 39.4173 5.59534L3.42725 41.7131C-1.14209 46.2824 -1.14209 53.7174 3.42236 58.2819L39.4187 94.4061C41.6366 96.6293 44.5874 97.8537 47.7278 97.8537C52.5569 97.8537 56.7093 95.0838 58.5644 90.6252C60.419 86.1664 59.4564 81.2688 56.0536 77.8453L40.0435 61.7194H68.748C70.9056 61.7194 72.6544 59.9705 72.6544 57.8129C72.6544 55.6553 70.9056 53.9065 68.748 53.9065H30.6601C29.0827 53.9065 27.6599 54.8551 27.0536 56.3115C26.4474 57.7676 26.7765 59.4459 27.8878 60.5651L50.5108 83.3514C52.2228 85.0739 51.5864 87.0576 51.3505 87.6244C51.1146 88.1912 50.1565 90.0412 47.7276 90.0412C46.6778 90.0412 45.6911 89.6319 44.9513 88.8901L8.95186 52.7621C7.42881 51.2391 7.42881 48.7608 8.95674 47.2328L44.9497 11.1115C45.6913 10.3684 46.6778 9.95901 47.7278 9.95901C50.1567 9.95901 51.1147 11.8088 51.3507 12.3758C51.5866 12.9428 52.2229 14.9264 50.5095 16.6504L27.8882 39.435C26.7769 40.5543 26.4478 42.2324 27.054 43.6887C27.6603 45.1449 29.0829 46.0938 30.6605 46.0938H88.2804C90.4345 46.0938 92.1868 47.8461 92.1868 50.0002C92.1868 52.1543 90.4345 53.9067 88.2804 53.9067C86.1228 53.9067 84.3739 55.6555 84.3739 57.8131C84.3739 59.9707 86.1228 61.7196 88.2804 61.7196C94.7423 61.7194 99.9997 56.4621 99.9997 50C99.9997 43.5381 94.7423 38.2807 88.2804 38.2807Z" fill="url(#paint0_linear)"/>
</g>
<defs>
<filter id="filter0_i" x="0" y="0" width="100" height="102" filterUnits="userSpaceOnUse" color-interpolation-filters="sRGB">
<feFlood flood-opacity="0" result="BackgroundImageFix"/>
<feBlend mode="normal" in="SourceGraphic" in2="BackgroundImageFix" result="shape"/>
<feColorMatrix in="SourceAlpha" type="matrix" values="0 0 0 0 0 0 0 0 0 0 0 0 0 0 0 0 0 0 127 0" result="hardAlpha"/>
<feOffset dy="2"/>
<feGaussianBlur stdDeviation="1"/>
<feComposite in2="hardAlpha" operator="arithmetic" k2="-1" k3="1"/>
<feColorMatrix type="matrix" values="0 0 0 0 0 0 0 0 0 0 0 0 0 0 0 0 0 0 0.25 0"/>
<feBlend mode="normal" in2="shape" result="effect1_innerShadow"/>
</filter>
<linearGradient id="paint0_linear" x1="49.9997" y1="2.14612" x2="49.9997" y2="97.8537" gradientUnits="userSpaceOnUse">
<stop stop-color=" rgba(107, 0, 179, 0.753)"/>
<stop offset="1" stop-color=" rgba(107, 0, 179, 0.753)"/>
</linearGradient>
<clipPath id="clip0">
<rect width="100" height="100" fill="white"/>
</clipPath>
</defs>
</svg>
